TITLE ""
FILE "TOEIC LR Kinnojyukugo_10.mp3" MP3
  TRACK 01 AUDIO
    TITLE "TOEIC LR Kinnojyukugo_10_0001"
    INDEX 01 00:00:00
  TRACK 02 AUDIO
    TITLE "TOEIC LR Kinnojyukugo_10_0002"
    INDEX 01 00:00:12
  TRACK 03 AUDIO
    TITLE "TOEIC LR Kinnojyukugo_10_0003"
    INDEX 01 00:01:27
  TRACK 04 AUDIO
    TITLE "TOEIC LR Kinnojyukugo_10_0004"
    INDEX 01 00:01:61
  TRACK 05 AUDIO
    TITLE "TOEIC LR Kinnojyukugo_10_0005"
    INDEX 01 00:04:10
  TRACK 06 AUDIO
    TITLE "TOEIC LR Kinnojyukugo_10_0006"
    INDEX 01 00:04:47
  TRACK 07 AUDIO
    TITLE "TOEIC LR Kinnojyukugo_10_0007"
    INDEX 01 00:06:07
  TRACK 08 AUDIO
    TITLE "TOEIC LR Kinnojyukugo_10_0008"
    INDEX 01 00:06:44
  TRACK 09 AUDIO
    TITLE "TOEIC LR Kinnojyukugo_10_0009"
    INDEX 01 00:08:25
  TRACK 10 AUDIO
    TITLE "TOEIC LR Kinnojyukugo_10_0010"
    INDEX 01 00:08:47
  TRACK 11 AUDIO
    TITLE "TOEIC LR Kinnojyukugo_10_0011"
    INDEX 01 00:10:28
  TRACK 12 AUDIO
    TITLE "TOEIC LR Kinnojyukugo_10_0012"
    INDEX 01 00:11:34
  TRACK 13 AUDIO
    TITLE "TOEIC LR Kinnojyukugo_10_0013"
    INDEX 01 00:12:62
  TRACK 14 AUDIO
    TITLE "TOEIC LR Kinnojyukugo_10_0014"
    INDEX 01 00:13:23
  TRACK 15 AUDIO
    TITLE "TOEIC LR Kinnojyukugo_10_0015"
    INDEX 01 00:15:63
  TRACK 16 AUDIO
    TITLE "TOEIC LR Kinnojyukugo_10_0016"
    INDEX 01 00:16:25
  TRACK 17 AUDIO
    TITLE "TOEIC LR Kinnojyukugo_10_0017"
    INDEX 01 00:18:06
  TRACK 18 AUDIO
    TITLE "TOEIC LR Kinnojyukugo_10_0018"
    INDEX 01 00:18:47
  TRACK 19 AUDIO
    TITLE "TOEIC LR Kinnojyukugo_10_0019"
    INDEX 01 00:20:42
  TRACK 20 AUDIO
    TITLE "TOEIC LR Kinnojyukugo_10_0020"
    INDEX 01 00:20:70
  TRACK 21 AUDIO
    TITLE "TOEIC LR Kinnojyukugo_10_0021"
    INDEX 01 00:22:65
  TRACK 22 AUDIO
    TITLE "TOEIC LR Kinnojyukugo_10_0022"
    INDEX 01 00:23:66
  TRACK 23 AUDIO
    TITLE "TOEIC LR Kinnojyukugo_10_0023"
    INDEX 01 00:25:18
  TRACK 24 AUDIO
    TITLE "TOEIC LR Kinnojyukugo_10_0024"
    INDEX 01 00:25:63
  TRACK 25 AUDIO
    TITLE "TOEIC LR Kinnojyukugo_10_0025"
    INDEX 01 00:29:10
  TRACK 26 AUDIO
    TITLE "TOEIC LR Kinnojyukugo_10_0026"
    INDEX 01 00:29:51
  TRACK 27 AUDIO
    TITLE "TOEIC LR Kinnojyukugo_10_0027"
    INDEX 01 00:32:57
  TRACK 28 AUDIO
    TITLE "TOEIC LR Kinnojyukugo_10_0028"
    INDEX 01 00:33:22
  TRACK 29 AUDIO
    TITLE "TOEIC LR Kinnojyukugo_10_0029"
    INDEX 01 00:35:75
  TRACK 30 AUDIO
    TITLE "TOEIC LR Kinnojyukugo_10_0030"
    INDEX 01 00:36:26
  TRACK 31 AUDIO
    TITLE "TOEIC LR Kinnojyukugo_10_0031"
    INDEX 01 00:39:03
  TRACK 32 AUDIO
    TITLE "TOEIC LR Kinnojyukugo_10_0032"
    INDEX 01 00:40:04
  TRACK 33 AUDIO
    TITLE "TOEIC LR Kinnojyukugo_10_0033"
    INDEX 01 00:41:29
  TRACK 34 AUDIO
    TITLE "TOEIC LR Kinnojyukugo_10_0034"
    INDEX 01 00:41:64
  TRACK 35 AUDIO
    TITLE "TOEIC LR Kinnojyukugo_10_0035"
    INDEX 01 00:43:41
  TRACK 36 AUDIO
    TITLE "TOEIC LR Kinnojyukugo_10_0036"
    INDEX 01 00:44:06
  TRACK 37 AUDIO
    TITLE "TOEIC LR Kinnojyukugo_10_0037"
    INDEX 01 00:47:14
  TRACK 38 AUDIO
    TITLE "TOEIC LR Kinnojyukugo_10_0038"
    INDEX 01 00:47:55
  TRACK 39 AUDIO
    TITLE "TOEIC LR Kinnojyukugo_10_0039"
    INDEX 01 00:49:62
  TRACK 40 AUDIO
    TITLE "TOEIC LR Kinnojyukugo_10_0040"
    INDEX 01 00:50:16
  TRACK 41 AUDIO
    TITLE "TOEIC LR Kinnojyukugo_10_0041"
    INDEX 01 00:52:27
  TRACK 42 AUDIO
    TITLE "TOEIC LR Kinnojyukugo_10_0042"
    INDEX 01 00:53:28
  TRACK 43 AUDIO
    TITLE "TOEIC LR Kinnojyukugo_10_0043"
    INDEX 01 00:54:49
  TRACK 44 AUDIO
    TITLE "TOEIC LR Kinnojyukugo_10_0044"
    INDEX 01 00:55:13
  TRACK 45 AUDIO
    TITLE "TOEIC LR Kinnojyukugo_10_0045"
    INDEX 01 00:58:45
  TRACK 46 AUDIO
    TITLE "TOEIC LR Kinnojyukugo_10_0046"
    INDEX 01 00:59:07
  TRACK 47 AUDIO
    TITLE "TOEIC LR Kinnojyukugo_10_0047"
    INDEX 01 01:01:53
  TRACK 48 AUDIO
    TITLE "TOEIC LR Kinnojyukugo_10_0048"
    INDEX 01 01:02:17
  TRACK 49 AUDIO
    TITLE "TOEIC LR Kinnojyukugo_10_0049"
    INDEX 01 01:04:40
  TRACK 50 AUDIO
    TITLE "TOEIC LR Kinnojyukugo_10_0050"
    INDEX 01 01:04:65
  TRACK 51 AUDIO
    TITLE "TOEIC LR Kinnojyukugo_10_0051"
    INDEX 01 01:07:13
  TRACK 52 AUDIO
    TITLE "TOEIC LR Kinnojyukugo_10_0052"
    INDEX 01 01:08:12
  TRACK 53 AUDIO
    TITLE "TOEIC LR Kinnojyukugo_10_0053"
    INDEX 01 01:09:39
  TRACK 54 AUDIO
    TITLE "TOEIC LR Kinnojyukugo_10_0054"
    INDEX 01 01:10:05
  TRACK 55 AUDIO
    TITLE "TOEIC LR Kinnojyukugo_10_0055"
    INDEX 01 01:11:08
  TRACK 56 AUDIO
    TITLE "TOEIC LR Kinnojyukugo_10_0056"
    INDEX 01 01:11:42
  TRACK 57 AUDIO
    TITLE "TOEIC LR Kinnojyukugo_10_0057"
    INDEX 01 01:14:30
  TRACK 58 AUDIO
    TITLE "TOEIC LR Kinnojyukugo_10_0058"
    INDEX 01 01:14:69
  TRACK 59 AUDIO
    TITLE "TOEIC LR Kinnojyukugo_10_0059"
    INDEX 01 01:17:62
  TRACK 60 AUDIO
    TITLE "TOEIC LR Kinnojyukugo_10_0060"
    INDEX 01 01:18:12
  TRACK 61 AUDIO
    TITLE "TOEIC LR Kinnojyukugo_10_0061"
    INDEX 01 01:21:05
  TRACK 62 AUDIO
    TITLE "TOEIC LR Kinnojyukugo_10_0062"
    INDEX 01 01:22:04
  TRACK 63 AUDIO
    TITLE "TOEIC LR Kinnojyukugo_10_0063"
    INDEX 01 01:23:29
  TRACK 64 AUDIO
    TITLE "TOEIC LR Kinnojyukugo_10_0064"
    INDEX 01 01:23:68
  TRACK 65 AUDIO
    TITLE "TOEIC LR Kinnojyukugo_10_0065"
    INDEX 01 01:25:05
  TRACK 66 AUDIO
    TITLE "TOEIC LR Kinnojyukugo_10_0066"
    INDEX 01 01:25:42
  TRACK 67 AUDIO
    TITLE "TOEIC LR Kinnojyukugo_10_0067"
    INDEX 01 01:27:45
  TRACK 68 AUDIO
    TITLE "TOEIC LR Kinnojyukugo_10_0068"
    INDEX 01 01:28:09
  TRACK 69 AUDIO
    TITLE "TOEIC LR Kinnojyukugo_10_0069"
    INDEX 01 01:29:63
  TRACK 70 AUDIO
    TITLE "TOEIC LR Kinnojyukugo_10_0070"
    INDEX 01 01:30:12
  TRACK 71 AUDIO
    TITLE "TOEIC LR Kinnojyukugo_10_0071"
    INDEX 01 01:31:68
  TRACK 72 AUDIO
    TITLE "TOEIC LR Kinnojyukugo_10_0072"
    INDEX 01 01:32:67
  TRACK 73 AUDIO
    TITLE "TOEIC LR Kinnojyukugo_10_0073"
    INDEX 01 01:34:29
  TRACK 74 AUDIO
    TITLE "TOEIC LR Kinnojyukugo_10_0074"
    INDEX 01 01:34:68
  TRACK 75 AUDIO
    TITLE "TOEIC LR Kinnojyukugo_10_0075"
    INDEX 01 01:36:12
  TRACK 76 AUDIO
    TITLE "TOEIC LR Kinnojyukugo_10_0076"
    INDEX 01 01:36:53
  TRACK 77 AUDIO
    TITLE "TOEIC LR Kinnojyukugo_10_0077"
    INDEX 01 01:39:52
  TRACK 78 AUDIO
    TITLE "TOEIC LR Kinnojyukugo_10_0078"
    INDEX 01 01:40:16
  TRACK 79 AUDIO
    TITLE "TOEIC LR Kinnojyukugo_10_0079"
    INDEX 01 01:42:46
  TRACK 80 AUDIO
    TITLE "TOEIC LR Kinnojyukugo_10_0080"
    INDEX 01 01:43:03
  TRACK 81 AUDIO
    TITLE "TOEIC LR Kinnojyukugo_10_0081"
    INDEX 01 01:45:33
  TRACK 82 AUDIO
    TITLE "TOEIC LR Kinnojyukugo_10_0082"
    INDEX 01 01:46:36
  TRACK 83 AUDIO
    TITLE "TOEIC LR Kinnojyukugo_10_0083"
    INDEX 01 01:47:53
  TRACK 84 AUDIO
    TITLE "TOEIC LR Kinnojyukugo_10_0084"
    INDEX 01 01:48:19
  TRACK 85 AUDIO
    TITLE "TOEIC LR Kinnojyukugo_10_0085"
    INDEX 01 01:49:52
  TRACK 86 AUDIO
    TITLE "TOEIC LR Kinnojyukugo_10_0086"
    INDEX 01 01:50:14
  TRACK 87 AUDIO
    TITLE "TOEIC LR Kinnojyukugo_10_0087"
    INDEX 01 01:52:05
  TRACK 88 AUDIO
    TITLE "TOEIC LR Kinnojyukugo_10_0088"
    INDEX 01 01:52:43
  TRACK 89 AUDIO
    TITLE "TOEIC LR Kinnojyukugo_10_0089"
    INDEX 01 01:54:12
  TRACK 90 AUDIO
    TITLE "TOEIC LR Kinnojyukugo_10_0090"
    INDEX 01 01:54:40
  TRACK 91 AUDIO
    TITLE "TOEIC LR Kinnojyukugo_10_0091"
    INDEX 01 01:56:07
  TRACK 92 AUDIO
    TITLE "TOEIC LR Kinnojyukugo_10_0092"
    INDEX 01 01:57:07
  TRACK 93 AUDIO
    TITLE "TOEIC LR Kinnojyukugo_10_0093"
    INDEX 01 01:58:51
  TRACK 94 AUDIO
    TITLE "TOEIC LR Kinnojyukugo_10_0094"
    INDEX 01 01:59:19
  TRACK 95 AUDIO
    TITLE "TOEIC LR Kinnojyukugo_10_0095"
    INDEX 01 02:02:02
  TRACK 96 AUDIO
    TITLE "TOEIC LR Kinnojyukugo_10_0096"
    INDEX 01 02:02:45
  TRACK 97 AUDIO
    TITLE "TOEIC LR Kinnojyukugo_10_0097"
    INDEX 01 02:04:24
  TRACK 98 AUDIO
    TITLE "TOEIC LR Kinnojyukugo_10_0098"
    INDEX 01 02:04:63
  TRACK 99 AUDIO
    TITLE "TOEIC LR Kinnojyukugo_10_0099"
    INDEX 01 02:06:70
  TRACK 100 AUDIO
    TITLE "TOEIC LR Kinnojyukugo_10_0100"
    INDEX 01 02:07:21
  TRACK 101 AUDIO
    TITLE "TOEIC LR Kinnojyukugo_10_0101"
    INDEX 01 02:09:27
  TRACK 102 AUDIO
    TITLE "TOEIC LR Kinnojyukugo_10_0102"
    INDEX 01 02:10:27
  TRACK 103 AUDIO
    TITLE "TOEIC LR Kinnojyukugo_10_0103"
    INDEX 01 02:11:73
  TRACK 104 AUDIO
    TITLE "TOEIC LR Kinnojyukugo_10_0104"
    INDEX 01 02:12:37
  TRACK 105 AUDIO
    TITLE "TOEIC LR Kinnojyukugo_10_0105"
    INDEX 01 02:14:09
  TRACK 106 AUDIO
    TITLE "TOEIC LR Kinnojyukugo_10_0106"
    INDEX 01 02:14:42
  TRACK 107 AUDIO
    TITLE "TOEIC LR Kinnojyukugo_10_0107"
    INDEX 01 02:16:49
  TRACK 108 AUDIO
    TITLE "TOEIC LR Kinnojyukugo_10_0108"
    INDEX 01 02:17:07
  TRACK 109 AUDIO
    TITLE "TOEIC LR Kinnojyukugo_10_0109"
    INDEX 01 02:19:22
  TRACK 110 AUDIO
    TITLE "TOEIC LR Kinnojyukugo_10_0110"
    INDEX 01 02:19:47
  TRACK 111 AUDIO
    TITLE "TOEIC LR Kinnojyukugo_10_0111"
    INDEX 01 02:21:64
  TRACK 112 AUDIO
    TITLE "TOEIC LR Kinnojyukugo_10_0112"
    INDEX 01 02:22:63
  TRACK 113 AUDIO
    TITLE "TOEIC LR Kinnojyukugo_10_0113"
    INDEX 01 02:24:27
  TRACK 114 AUDIO
    TITLE "TOEIC LR Kinnojyukugo_10_0114"
    INDEX 01 02:24:64
  TRACK 115 AUDIO
    TITLE "TOEIC LR Kinnojyukugo_10_0115"
    INDEX 01 02:27:39
  TRACK 116 AUDIO
    TITLE "TOEIC LR Kinnojyukugo_10_0116"
    INDEX 01 02:27:74
  TRACK 117 AUDIO
    TITLE "TOEIC LR Kinnojyukugo_10_0117"
    INDEX 01 02:30:71
  TRACK 118 AUDIO
    TITLE "TOEIC LR Kinnojyukugo_10_0118"
    INDEX 01 02:31:35
  TRACK 119 AUDIO
    TITLE "TOEIC LR Kinnojyukugo_10_0119"
    INDEX 01 02:34:57
  TRACK 120 AUDIO
    TITLE "TOEIC LR Kinnojyukugo_10_0120"
    INDEX 01 02:35:07
  TRACK 121 AUDIO
    TITLE "TOEIC LR Kinnojyukugo_10_0121"
    INDEX 01 02:38:29
  TRACK 122 AUDIO
    TITLE "TOEIC LR Kinnojyukugo_10_0122"
    INDEX 01 02:39:30
  TRACK 123 AUDIO
    TITLE "TOEIC LR Kinnojyukugo_10_0123"
    INDEX 01 02:40:51
  TRACK 124 AUDIO
    TITLE "TOEIC LR Kinnojyukugo_10_0124"
    INDEX 01 02:41:18
  TRACK 125 AUDIO
    TITLE "TOEIC LR Kinnojyukugo_10_0125"
    INDEX 01 02:42:48
  TRACK 126 AUDIO
    TITLE "TOEIC LR Kinnojyukugo_10_0126"
    INDEX 01 02:43:22
  TRACK 127 AUDIO
    TITLE "TOEIC LR Kinnojyukugo_10_0127"
    INDEX 01 02:45:51
  TRACK 128 AUDIO
    TITLE "TOEIC LR Kinnojyukugo_10_0128"
    INDEX 01 02:46:15
  TRACK 129 AUDIO
    TITLE "TOEIC LR Kinnojyukugo_10_0129"
    INDEX 01 02:48:47
  TRACK 130 AUDIO
    TITLE "TOEIC LR Kinnojyukugo_10_0130"
    INDEX 01 02:48:73
  TRACK 131 AUDIO
    TITLE "TOEIC LR Kinnojyukugo_10_0131"
    INDEX 01 02:51:26
  TRACK 132 AUDIO
    TITLE "TOEIC LR Kinnojyukugo_10_0132"
    INDEX 01 02:52:25
  TRACK 133 AUDIO
    TITLE "TOEIC LR Kinnojyukugo_10_0133"
    INDEX 01 02:53:46
  TRACK 134 AUDIO
    TITLE "TOEIC LR Kinnojyukugo_10_0134"
    INDEX 01 02:54:10
  TRACK 135 AUDIO
    TITLE "TOEIC LR Kinnojyukugo_10_0135"
    INDEX 01 02:55:28
  TRACK 136 AUDIO
    TITLE "TOEIC LR Kinnojyukugo_10_0136"
    INDEX 01 02:55:65
  TRACK 137 AUDIO
    TITLE "TOEIC LR Kinnojyukugo_10_0137"
    INDEX 01 02:57:75
  TRACK 138 AUDIO
    TITLE "TOEIC LR Kinnojyukugo_10_0138"
    INDEX 01 02:58:43
  TRACK 139 AUDIO
    TITLE "TOEIC LR Kinnojyukugo_10_0139"
    INDEX 01 03:00:64
  TRACK 140 AUDIO
    TITLE "TOEIC LR Kinnojyukugo_10_0140"
    INDEX 01 03:01:14
  TRACK 141 AUDIO
    TITLE "TOEIC LR Kinnojyukugo_10_0141"
    INDEX 01 03:03:37
  TRACK 142 AUDIO
    TITLE "TOEIC LR Kinnojyukugo_10_0142"
    INDEX 01 03:04:38
  TRACK 143 AUDIO
    TITLE "TOEIC LR Kinnojyukugo_10_0143"
    INDEX 01 03:05:55
  TRACK 144 AUDIO
    TITLE "TOEIC LR Kinnojyukugo_10_0144"
    INDEX 01 03:06:18
  TRACK 145 AUDIO
    TITLE "TOEIC LR Kinnojyukugo_10_0145"
    INDEX 01 03:08:46
  TRACK 146 AUDIO
    TITLE "TOEIC LR Kinnojyukugo_10_0146"
    INDEX 01 03:09:10
  TRACK 147 AUDIO
    TITLE "TOEIC LR Kinnojyukugo_10_0147"
    INDEX 01 03:12:73
  TRACK 148 AUDIO
    TITLE "TOEIC LR Kinnojyukugo_10_0148"
    INDEX 01 03:13:37
  TRACK 149 AUDIO
    TITLE "TOEIC LR Kinnojyukugo_10_0149"
    INDEX 01 03:16:26
  TRACK 150 AUDIO
    TITLE "TOEIC LR Kinnojyukugo_10_0150"
    INDEX 01 03:16:49
  TRACK 151 AUDIO
    TITLE "TOEIC LR Kinnojyukugo_10_0151"
    INDEX 01 03:19:38
  TRACK 152 AUDIO
    TITLE "TOEIC LR Kinnojyukugo_10_0152"
    INDEX 01 03:20:37
  TRACK 153 AUDIO
    TITLE "TOEIC LR Kinnojyukugo_10_0153"
    INDEX 01 03:21:46
  TRACK 154 AUDIO
    TITLE "TOEIC LR Kinnojyukugo_10_0154"
    INDEX 01 03:22:07
  TRACK 155 AUDIO
    TITLE "TOEIC LR Kinnojyukugo_10_0155"
    INDEX 01 03:25:66
  TRACK 156 AUDIO
    TITLE "TOEIC LR Kinnojyukugo_10_0156"
    INDEX 01 03:26:28
  TRACK 157 AUDIO
    TITLE "TOEIC LR Kinnojyukugo_10_0157"
    INDEX 01 03:28:64
  TRACK 158 AUDIO
    TITLE "TOEIC LR Kinnojyukugo_10_0158"
    INDEX 01 03:29:28
  TRACK 159 AUDIO
    TITLE "TOEIC LR Kinnojyukugo_10_0159"
    INDEX 01 03:31:25
  TRACK 160 AUDIO
    TITLE "TOEIC LR Kinnojyukugo_10_0160"
    INDEX 01 03:31:47
  TRACK 161 AUDIO
    TITLE "TOEIC LR Kinnojyukugo_10_0161"
    INDEX 01 03:33:48
  TRACK 162 AUDIO
    TITLE "TOEIC LR Kinnojyukugo_10_0162"
    INDEX 01 03:34:47
  TRACK 163 AUDIO
    TITLE "TOEIC LR Kinnojyukugo_10_0163"
    INDEX 01 03:35:62
  TRACK 164 AUDIO
    TITLE "TOEIC LR Kinnojyukugo_10_0164"
    INDEX 01 03:36:24
  TRACK 165 AUDIO
    TITLE "TOEIC LR Kinnojyukugo_10_0165"
    INDEX 01 03:38:74
  TRACK 166 AUDIO
    TITLE "TOEIC LR Kinnojyukugo_10_0166"
    INDEX 01 03:39:40
  TRACK 167 AUDIO
    TITLE "TOEIC LR Kinnojyukugo_10_0167"
    INDEX 01 03:43:21
  TRACK 168 AUDIO
    TITLE "TOEIC LR Kinnojyukugo_10_0168"
    INDEX 01 03:43:60
  TRACK 169 AUDIO
    TITLE "TOEIC LR Kinnojyukugo_10_0169"
    INDEX 01 03:46:66
  TRACK 170 AUDIO
    TITLE "TOEIC LR Kinnojyukugo_10_0170"
    INDEX 01 03:47:22
  TRACK 171 AUDIO
    TITLE "TOEIC LR Kinnojyukugo_10_0171"
    INDEX 01 03:50:29
  TRACK 172 AUDIO
    TITLE "TOEIC LR Kinnojyukugo_10_0172"
    INDEX 01 03:51:32
  TRACK 173 AUDIO
    TITLE "TOEIC LR Kinnojyukugo_10_0173"
    INDEX 01 03:52:39
  TRACK 174 AUDIO
    TITLE "TOEIC LR Kinnojyukugo_10_0174"
    INDEX 01 03:53:03
  TRACK 175 AUDIO
    TITLE "TOEIC LR Kinnojyukugo_10_0175"
    INDEX 01 03:54:20
  TRACK 176 AUDIO
    TITLE "TOEIC LR Kinnojyukugo_10_0176"
    INDEX 01 03:54:58
  TRACK 177 AUDIO
    TITLE "TOEIC LR Kinnojyukugo_10_0177"
    INDEX 01 03:57:11
  TRACK 178 AUDIO
    TITLE "TOEIC LR Kinnojyukugo_10_0178"
    INDEX 01 03:57:50
  TRACK 179 AUDIO
    TITLE "TOEIC LR Kinnojyukugo_10_0179"
    INDEX 01 04:00:01
  TRACK 180 AUDIO
    TITLE "TOEIC LR Kinnojyukugo_10_0180"
    INDEX 01 04:00:27
  TRACK 181 AUDIO
    TITLE "TOEIC LR Kinnojyukugo_10_0181"
    INDEX 01 04:02:53
  TRACK 182 AUDIO
    TITLE "TOEIC LR Kinnojyukugo_10_0182"
    INDEX 01 04:03:55
  TRACK 183 AUDIO
    TITLE "TOEIC LR Kinnojyukugo_10_0183"
    INDEX 01 04:05:14
  TRACK 184 AUDIO
    TITLE "TOEIC LR Kinnojyukugo_10_0184"
    INDEX 01 04:05:48
  TRACK 185 AUDIO
    TITLE "TOEIC LR Kinnojyukugo_10_0185"
    INDEX 01 04:08:54
  TRACK 186 AUDIO
    TITLE "TOEIC LR Kinnojyukugo_10_0186"
    INDEX 01 04:09:22
  TRACK 187 AUDIO
    TITLE "TOEIC LR Kinnojyukugo_10_0187"
    INDEX 01 04:11:21
  TRACK 188 AUDIO
    TITLE "TOEIC LR Kinnojyukugo_10_0188"
    INDEX 01 04:11:62
  TRACK 189 AUDIO
    TITLE "TOEIC LR Kinnojyukugo_10_0189"
    INDEX 01 04:13:67
  TRACK 190 AUDIO
    TITLE "TOEIC LR Kinnojyukugo_10_0190"
    INDEX 01 04:14:17
  TRACK 191 AUDIO
    TITLE "TOEIC LR Kinnojyukugo_10_0191"
    INDEX 01 04:16:22
  TRACK 192 AUDIO
    TITLE "TOEIC LR Kinnojyukugo_10_0192"
    INDEX 01 04:17:23
  TRACK 193 AUDIO
    TITLE "TOEIC LR Kinnojyukugo_10_0193"
    INDEX 01 04:18:70
  TRACK 194 AUDIO
    TITLE "TOEIC LR Kinnojyukugo_10_0194"
    INDEX 01 04:19:28
  TRACK 195 AUDIO
    TITLE "TOEIC LR Kinnojyukugo_10_0195"
    INDEX 01 04:23:40
  TRACK 196 AUDIO
    TITLE "TOEIC LR Kinnojyukugo_10_0196"
    INDEX 01 04:24:02
  TRACK 197 AUDIO
    TITLE "TOEIC LR Kinnojyukugo_10_0197"
    INDEX 01 04:27:45
  TRACK 198 AUDIO
    TITLE "TOEIC LR Kinnojyukugo_10_0198"
    INDEX 01 04:28:08
  TRACK 199 AUDIO
    TITLE "TOEIC LR Kinnojyukugo_10_0199"
    INDEX 01 04:31:02
  TRACK 200 AUDIO
    TITLE "TOEIC LR Kinnojyukugo_10_0200"
    INDEX 01 04:31:28
  TRACK 201 AUDIO
    TITLE "TOEIC LR Kinnojyukugo_10_0201"
    INDEX 01 04:34:24
  TRACK 202 AUDIO
    TITLE "TOEIC LR Kinnojyukugo_10_0202"
    INDEX 01 04:35:25
  TRACK 203 AUDIO
    TITLE "TOEIC LR Kinnojyukugo_10_0203"
    INDEX 01 04:36:64
  TRACK 204 AUDIO
    TITLE "TOEIC LR Kinnojyukugo_10_0204"
    INDEX 01 04:37:28
  TRACK 205 AUDIO
    TITLE "TOEIC LR Kinnojyukugo_10_0205"
    INDEX 01 04:39:35
  TRACK 206 AUDIO
    TITLE "TOEIC LR Kinnojyukugo_10_0206"
    INDEX 01 04:39:72
  TRACK 207 AUDIO
    TITLE "TOEIC LR Kinnojyukugo_10_0207"
    INDEX 01 04:42:18
  TRACK 208 AUDIO
    TITLE "TOEIC LR Kinnojyukugo_10_0208"
    INDEX 01 04:42:55
  TRACK 209 AUDIO
    TITLE "TOEIC LR Kinnojyukugo_10_0209"
    INDEX 01 04:44:54
  TRACK 210 AUDIO
    TITLE "TOEIC LR Kinnojyukugo_10_0210"
    INDEX 01 04:45:06
  TRACK 211 AUDIO
    TITLE "TOEIC LR Kinnojyukugo_10_0211"
    INDEX 01 04:46:74
  TRACK 212 AUDIO
    TITLE "TOEIC LR Kinnojyukugo_10_0212"
    INDEX 01 04:48:02
  TRACK 213 AUDIO
    TITLE "TOEIC LR Kinnojyukugo_10_0213"
    INDEX 01 04:49:21
  TRACK 214 AUDIO
    TITLE "TOEIC LR Kinnojyukugo_10_0214"
    INDEX 01 04:49:63
  TRACK 215 AUDIO
    TITLE "TOEIC LR Kinnojyukugo_10_0215"
    INDEX 01 04:51:03
  TRACK 216 AUDIO
    TITLE "TOEIC LR Kinnojyukugo_10_0216"
    INDEX 01 04:51:44
  TRACK 217 AUDIO
    TITLE "TOEIC LR Kinnojyukugo_10_0217"
    INDEX 01 04:53:31
  TRACK 218 AUDIO
    TITLE "TOEIC LR Kinnojyukugo_10_0218"
    INDEX 01 04:53:70
  TRACK 219 AUDIO
    TITLE "TOEIC LR Kinnojyukugo_10_0219"
    INDEX 01 04:55:71
  TRACK 220 AUDIO
    TITLE "TOEIC LR Kinnojyukugo_10_0220"
    INDEX 01 04:56:20
  TRACK 221 AUDIO
    TITLE "TOEIC LR Kinnojyukugo_10_0221"
    INDEX 01 04:58:20
  TRACK 222 AUDIO
    TITLE "TOEIC LR Kinnojyukugo_10_0222"
    INDEX 01 04:59:20
  TRACK 223 AUDIO
    TITLE "TOEIC LR Kinnojyukugo_10_0223"
    INDEX 01 05:00:62
  TRACK 224 AUDIO
    TITLE "TOEIC LR Kinnojyukugo_10_0224"
    INDEX 01 05:01:25
  TRACK 225 AUDIO
    TITLE "TOEIC LR Kinnojyukugo_10_0225"
    INDEX 01 05:02:67
  TRACK 226 AUDIO
    TITLE "TOEIC LR Kinnojyukugo_10_0226"
    INDEX 01 05:03:29
  TRACK 227 AUDIO
    TITLE "TOEIC LR Kinnojyukugo_10_0227"
    INDEX 01 05:06:69
  TRACK 228 AUDIO
    TITLE "TOEIC LR Kinnojyukugo_10_0228"
    INDEX 01 05:07:41
  TRACK 229 AUDIO
    TITLE "TOEIC LR Kinnojyukugo_10_0229"
    INDEX 01 05:10:26
  TRACK 230 AUDIO
    TITLE "TOEIC LR Kinnojyukugo_10_0230"
    INDEX 01 05:10:53
  TRACK 231 AUDIO
    TITLE "TOEIC LR Kinnojyukugo_10_0231"
    INDEX 01 05:13:40
  TRACK 232 AUDIO
    TITLE "TOEIC LR Kinnojyukugo_10_0232"
    INDEX 01 05:14:41
  TRACK 233 AUDIO
    TITLE "TOEIC LR Kinnojyukugo_10_0233"
    INDEX 01 05:15:48
  TRACK 234 AUDIO
    TITLE "TOEIC LR Kinnojyukugo_10_0234"
    INDEX 01 05:16:13
  TRACK 235 AUDIO
    TITLE "TOEIC LR Kinnojyukugo_10_0235"
    INDEX 01 05:17:16
  TRACK 236 AUDIO
    TITLE "TOEIC LR Kinnojyukugo_10_0236"
    INDEX 01 05:17:55
  TRACK 237 AUDIO
    TITLE "TOEIC LR Kinnojyukugo_10_0237"
    INDEX 01 05:20:20
  TRACK 238 AUDIO
    TITLE "TOEIC LR Kinnojyukugo_10_0238"
    INDEX 01 05:20:59
  TRACK 239 AUDIO
    TITLE "TOEIC LR Kinnojyukugo_10_0239"
    INDEX 01 05:23:24
  TRACK 240 AUDIO
    TITLE "TOEIC LR Kinnojyukugo_10_0240"
    INDEX 01 05:23:50
  TRACK 241 AUDIO
    TITLE "TOEIC LR Kinnojyukugo_10_0241"
    INDEX 01 05:26:15
  TRACK 242 AUDIO
    TITLE "TOEIC LR Kinnojyukugo_10_0242"
    INDEX 01 05:27:16
  TRACK 243 AUDIO
    TITLE "TOEIC LR Kinnojyukugo_10_0243"
    INDEX 01 05:28:67
  TRACK 244 AUDIO
    TITLE "TOEIC LR Kinnojyukugo_10_0244"
    INDEX 01 05:29:27
  TRACK 245 AUDIO
    TITLE "TOEIC LR Kinnojyukugo_10_0245"
    INDEX 01 05:30:62
  TRACK 246 AUDIO
    TITLE "TOEIC LR Kinnojyukugo_10_0246"
    INDEX 01 05:31:26
  TRACK 247 AUDIO
    TITLE "TOEIC LR Kinnojyukugo_10_0247"
    INDEX 01 05:34:28
  TRACK 248 AUDIO
    TITLE "TOEIC LR Kinnojyukugo_10_0248"
    INDEX 01 05:34:69
  TRACK 249 AUDIO
    TITLE "TOEIC LR Kinnojyukugo_10_0249"
    INDEX 01 05:37:64
  TRACK 250 AUDIO
    TITLE "TOEIC LR Kinnojyukugo_10_0250"
    INDEX 01 05:38:12
  TRACK 251 AUDIO
    TITLE "TOEIC LR Kinnojyukugo_10_0251"
    INDEX 01 05:41:05
  TRACK 252 AUDIO
    TITLE "TOEIC LR Kinnojyukugo_10_0252"
    INDEX 01 05:42:06
  TRACK 253 AUDIO
    TITLE "TOEIC LR Kinnojyukugo_10_0253"
    INDEX 01 05:43:23
  TRACK 254 AUDIO
    TITLE "TOEIC LR Kinnojyukugo_10_0254"
    INDEX 01 05:43:62
  TRACK 255 AUDIO
    TITLE "TOEIC LR Kinnojyukugo_10_0255"
    INDEX 01 05:45:55
  TRACK 256 AUDIO
    TITLE "TOEIC LR Kinnojyukugo_10_0256"
    INDEX 01 05:46:19
  TRACK 257 AUDIO
    TITLE "TOEIC LR Kinnojyukugo_10_0257"
    INDEX 01 05:47:52
  TRACK 258 AUDIO
    TITLE "TOEIC LR Kinnojyukugo_10_0258"
    INDEX 01 05:48:14
  TRACK 259 AUDIO
    TITLE "TOEIC LR Kinnojyukugo_10_0259"
    INDEX 01 05:49:61
  TRACK 260 AUDIO
    TITLE "TOEIC LR Kinnojyukugo_10_0260"
    INDEX 01 05:50:09
  TRACK 261 AUDIO
    TITLE "TOEIC LR Kinnojyukugo_10_0261"
    INDEX 01 05:51:56
  TRACK 262 AUDIO
    TITLE "TOEIC LR Kinnojyukugo_10_0262"
    INDEX 01 05:52:55
  TRACK 263 AUDIO
    TITLE "TOEIC LR Kinnojyukugo_10_0263"
    INDEX 01 05:54:15
  TRACK 264 AUDIO
    TITLE "TOEIC LR Kinnojyukugo_10_0264"
    INDEX 01 05:54:52
  TRACK 265 AUDIO
    TITLE "TOEIC LR Kinnojyukugo_10_0265"
    INDEX 01 05:55:65
  TRACK 266 AUDIO
    TITLE "TOEIC LR Kinnojyukugo_10_0266"
    INDEX 01 05:56:28
  TRACK 267 AUDIO
    TITLE "TOEIC LR Kinnojyukugo_10_0267"
    INDEX 01 05:58:36
  TRACK 268 AUDIO
    TITLE "TOEIC LR Kinnojyukugo_10_0268"
    INDEX 01 05:59:03
  TRACK 269 AUDIO
    TITLE "TOEIC LR Kinnojyukugo_10_0269"
    INDEX 01 06:01:45
  TRACK 270 AUDIO
    TITLE "TOEIC LR Kinnojyukugo_10_0270"
    INDEX 01 06:01:70
  TRACK 271 AUDIO
    TITLE "TOEIC LR Kinnojyukugo_10_0271"
    INDEX 01 06:04:37
  TRACK 272 AUDIO
    TITLE "TOEIC LR Kinnojyukugo_10_0272"
    INDEX 01 06:05:36
  TRACK 273 AUDIO
    TITLE "TOEIC LR Kinnojyukugo_10_0273"
    INDEX 01 06:07:10
  TRACK 274 AUDIO
    TITLE "TOEIC LR Kinnojyukugo_10_0274"
    INDEX 01 06:07:47
  TRACK 275 AUDIO
    TITLE "TOEIC LR Kinnojyukugo_10_0275"
    INDEX 01 06:09:11
  TRACK 276 AUDIO
    TITLE "TOEIC LR Kinnojyukugo_10_0276"
    INDEX 01 06:09:50
  TRACK 277 AUDIO
    TITLE "TOEIC LR Kinnojyukugo_10_0277"
    INDEX 01 06:13:69
  TRACK 278 AUDIO
    TITLE "TOEIC LR Kinnojyukugo_10_0278"
    INDEX 01 06:14:31
  TRACK 279 AUDIO
    TITLE "TOEIC LR Kinnojyukugo_10_0279"
    INDEX 01 06:17:47
  TRACK 280 AUDIO
    TITLE "TOEIC LR Kinnojyukugo_10_0280"
    INDEX 01 06:17:73
  TRACK 281 AUDIO
    TITLE "TOEIC LR Kinnojyukugo_10_0281"
    INDEX 01 06:21:12
  TRACK 282 AUDIO
    TITLE "TOEIC LR Kinnojyukugo_10_0282"
    INDEX 01 06:22:13
  TRACK 283 AUDIO
    TITLE "TOEIC LR Kinnojyukugo_10_0283"
    INDEX 01 06:23:42
  TRACK 284 AUDIO
    TITLE "TOEIC LR Kinnojyukugo_10_0284"
    INDEX 01 06:24:06
  TRACK 285 AUDIO
    TITLE "TOEIC LR Kinnojyukugo_10_0285"
    INDEX 01 06:26:62
  TRACK 286 AUDIO
    TITLE "TOEIC LR Kinnojyukugo_10_0286"
    INDEX 01 06:27:24
  TRACK 287 AUDIO
    TITLE "TOEIC LR Kinnojyukugo_10_0287"
    INDEX 01 06:29:72
  TRACK 288 AUDIO
    TITLE "TOEIC LR Kinnojyukugo_10_0288"
    INDEX 01 06:30:36
  TRACK 289 AUDIO
    TITLE "TOEIC LR Kinnojyukugo_10_0289"
    INDEX 01 06:32:74
  TRACK 290 AUDIO
    TITLE "TOEIC LR Kinnojyukugo_10_0290"
    INDEX 01 06:33:23
  TRACK 291 AUDIO
    TITLE "TOEIC LR Kinnojyukugo_10_0291"
    INDEX 01 06:35:61
  TRACK 292 AUDIO
    TITLE "TOEIC LR Kinnojyukugo_10_0292"
    INDEX 01 06:36:61
  TRACK 293 AUDIO
    TITLE "TOEIC LR Kinnojyukugo_10_0293"
    INDEX 01 06:39:04
  TRACK 294 AUDIO
    TITLE "TOEIC LR Kinnojyukugo_10_0294"
    INDEX 01 06:39:43
  TRACK 295 AUDIO
    TITLE "TOEIC LR Kinnojyukugo_10_0295"
    INDEX 01 06:41:54
  TRACK 296 AUDIO
    TITLE "TOEIC LR Kinnojyukugo_10_0296"
    INDEX 01 06:42:18
  TRACK 297 AUDIO
    TITLE "TOEIC LR Kinnojyukugo_10_0297"
    INDEX 01 06:44:72
  TRACK 298 AUDIO
    TITLE "TOEIC LR Kinnojyukugo_10_0298"
    INDEX 01 06:45:40
  TRACK 299 AUDIO
    TITLE "TOEIC LR Kinnojyukugo_10_0299"
    INDEX 01 06:47:68
  TRACK 300 AUDIO
    TITLE "TOEIC LR Kinnojyukugo_10_0300"
    INDEX 01 06:48:24
  TRACK 301 AUDIO
    TITLE "TOEIC LR Kinnojyukugo_10_0301"
    INDEX 01 06:50:49
  TRACK 302 AUDIO
    TITLE "TOEIC LR Kinnojyukugo_10_0302"
    INDEX 01 06:51:50
  TRACK 303 AUDIO
    TITLE "TOEIC LR Kinnojyukugo_10_0303"
    INDEX 01 06:52:63
  TRACK 304 AUDIO
    TITLE "TOEIC LR Kinnojyukugo_10_0304"
    INDEX 01 06:53:30
  TRACK 305 AUDIO
    TITLE "TOEIC LR Kinnojyukugo_10_0305"
    INDEX 01 06:55:60
  TRACK 306 AUDIO
    TITLE "TOEIC LR Kinnojyukugo_10_0306"
    INDEX 01 06:56:16
  TRACK 307 AUDIO
    TITLE "TOEIC LR Kinnojyukugo_10_0307"
    INDEX 01 07:00:24
  TRACK 308 AUDIO
    TITLE "TOEIC LR Kinnojyukugo_10_0308"
    INDEX 01 07:00:67
  TRACK 309 AUDIO
    TITLE "TOEIC LR Kinnojyukugo_10_0309"
    INDEX 01 07:04:43
  TRACK 310 AUDIO
    TITLE "TOEIC LR Kinnojyukugo_10_0310"
    INDEX 01 07:04:72
  TRACK 311 AUDIO
    TITLE "TOEIC LR Kinnojyukugo_10_0311"
    INDEX 01 07:08:49
  TRACK 312 AUDIO
    TITLE "TOEIC LR Kinnojyukugo_10_0312"
    INDEX 01 07:09:48
  TRACK 313 AUDIO
    TITLE "TOEIC LR Kinnojyukugo_10_0313"
    INDEX 01 07:11:16
  TRACK 314 AUDIO
    TITLE "TOEIC LR Kinnojyukugo_10_0314"
    INDEX 01 07:11:55
  TRACK 315 AUDIO
    TITLE "TOEIC LR Kinnojyukugo_10_0315"
    INDEX 01 07:12:72
  TRACK 316 AUDIO
    TITLE "TOEIC LR Kinnojyukugo_10_0316"
    INDEX 01 07:13:36
  TRACK 317 AUDIO
    TITLE "TOEIC LR Kinnojyukugo_10_0317"
    INDEX 01 07:16:03
  TRACK 318 AUDIO
    TITLE "TOEIC LR Kinnojyukugo_10_0318"
    INDEX 01 07:16:42
  TRACK 319 AUDIO
    TITLE "TOEIC LR Kinnojyukugo_10_0319"
    INDEX 01 07:19:07
  TRACK 320 AUDIO
    TITLE "TOEIC LR Kinnojyukugo_10_0320"
    INDEX 01 07:19:33
  TRACK 321 AUDIO
    TITLE "TOEIC LR Kinnojyukugo_10_0321"
    INDEX 01 07:21:73
  TRACK 322 AUDIO
    TITLE "TOEIC LR Kinnojyukugo_10_0322"
    INDEX 01 07:22:72
  TRACK 323 AUDIO
    TITLE "TOEIC LR Kinnojyukugo_10_0323"
    INDEX 01 07:24:30
  TRACK 324 AUDIO
    TITLE "TOEIC LR Kinnojyukugo_10_0324"
    INDEX 01 07:24:67
  TRACK 325 AUDIO
    TITLE "TOEIC LR Kinnojyukugo_10_0325"
    INDEX 01 07:27:68
  TRACK 326 AUDIO
    TITLE "TOEIC LR Kinnojyukugo_10_0326"
    INDEX 01 07:28:32
  TRACK 327 AUDIO
    TITLE "TOEIC LR Kinnojyukugo_10_0327"
    INDEX 01 07:30:09
  TRACK 328 AUDIO
    TITLE "TOEIC LR Kinnojyukugo_10_0328"
    INDEX 01 07:30:48
  TRACK 329 AUDIO
    TITLE "TOEIC LR Kinnojyukugo_10_0329"
    INDEX 01 07:32:39
  TRACK 330 AUDIO
    TITLE "TOEIC LR Kinnojyukugo_10_0330"
    INDEX 01 07:32:67
  TRACK 331 AUDIO
    TITLE "TOEIC LR Kinnojyukugo_10_0331"
    INDEX 01 07:34:62
  TRACK 332 AUDIO
    TITLE "TOEIC LR Kinnojyukugo_10_0332"
    INDEX 01 07:35:63
  TRACK 333 AUDIO
    TITLE "TOEIC LR Kinnojyukugo_10_0333"
    INDEX 01 07:37:13
  TRACK 334 AUDIO
    TITLE "TOEIC LR Kinnojyukugo_10_0334"
    INDEX 01 07:37:48
  TRACK 335 AUDIO
    TITLE "TOEIC LR Kinnojyukugo_10_0335"
    INDEX 01 07:39:18
  TRACK 336 AUDIO
    TITLE "TOEIC LR Kinnojyukugo_10_0336"
    INDEX 01 07:39:57
  TRACK 337 AUDIO
    TITLE "TOEIC LR Kinnojyukugo_10_0337"
    INDEX 01 07:42:05
  TRACK 338 AUDIO
    TITLE "TOEIC LR Kinnojyukugo_10_0338"
    INDEX 01 07:42:46
  TRACK 339 AUDIO
    TITLE "TOEIC LR Kinnojyukugo_10_0339"
    INDEX 01 07:44:21
  TRACK 340 AUDIO
    TITLE "TOEIC LR Kinnojyukugo_10_0340"
    INDEX 01 07:44:48
  TRACK 341 AUDIO
    TITLE "TOEIC LR Kinnojyukugo_10_0341"
    INDEX 01 07:46:24
  TRACK 342 AUDIO
    TITLE "TOEIC LR Kinnojyukugo_10_0342"
    INDEX 01 07:47:27
  TRACK 343 AUDIO
    TITLE "TOEIC LR Kinnojyukugo_10_0343"
    INDEX 01 07:48:50
  TRACK 344 AUDIO
    TITLE "TOEIC LR Kinnojyukugo_10_0344"
    INDEX 01 07:49:12
  TRACK 345 AUDIO
    TITLE "TOEIC LR Kinnojyukugo_10_0345"
    INDEX 01 07:50:28
  TRACK 346 AUDIO
    TITLE "TOEIC LR Kinnojyukugo_10_0346"
    INDEX 01 07:50:71
  TRACK 347 AUDIO
    TITLE "TOEIC LR Kinnojyukugo_10_0347"
    INDEX 01 07:53:49
  TRACK 348 AUDIO
    TITLE "TOEIC LR Kinnojyukugo_10_0348"
    INDEX 01 07:54:14
  TRACK 349 AUDIO
    TITLE "TOEIC LR Kinnojyukugo_10_0349"
    INDEX 01 07:56:61
  TRACK 350 AUDIO
    TITLE "TOEIC LR Kinnojyukugo_10_0350"
    INDEX 01 07:57:12
  TRACK 351 AUDIO
    TITLE "TOEIC LR Kinnojyukugo_10_0351"
    INDEX 01 07:59:64
  TRACK 352 AUDIO
    TITLE "TOEIC LR Kinnojyukugo_10_0352"
    INDEX 01 08:00:63
  TRACK 353 AUDIO
    TITLE "TOEIC LR Kinnojyukugo_10_0353"
    INDEX 01 08:02:13
  TRACK 354 AUDIO
    TITLE "TOEIC LR Kinnojyukugo_10_0354"
    INDEX 01 08:02:50
  TRACK 355 AUDIO
    TITLE "TOEIC LR Kinnojyukugo_10_0355"
    INDEX 01 08:03:60
  TRACK 356 AUDIO
    TITLE "TOEIC LR Kinnojyukugo_10_0356"
    INDEX 01 08:04:24
  TRACK 357 AUDIO
    TITLE "TOEIC LR Kinnojyukugo_10_0357"
    INDEX 01 08:06:29
  TRACK 358 AUDIO
    TITLE "TOEIC LR Kinnojyukugo_10_0358"
    INDEX 01 08:06:70
  TRACK 359 AUDIO
    TITLE "TOEIC LR Kinnojyukugo_10_0359"
    INDEX 01 08:09:21
  TRACK 360 AUDIO
    TITLE "TOEIC LR Kinnojyukugo_10_0360"
    INDEX 01 08:09:45
  TRACK 361 AUDIO
    TITLE "TOEIC LR Kinnojyukugo_10_0361"
    INDEX 01 08:11:71
  TRACK 362 AUDIO
    TITLE "TOEIC LR Kinnojyukugo_10_0362"
    INDEX 01 08:12:70
  TRACK 363 AUDIO
    TITLE "TOEIC LR Kinnojyukugo_10_0363"
    INDEX 01 08:14:12
  TRACK 364 AUDIO
    TITLE "TOEIC LR Kinnojyukugo_10_0364"
    INDEX 01 08:14:52
  TRACK 365 AUDIO
    TITLE "TOEIC LR Kinnojyukugo_10_0365"
    INDEX 01 08:15:59
  TRACK 366 AUDIO
    TITLE "TOEIC LR Kinnojyukugo_10_0366"
    INDEX 01 08:16:25
  TRACK 367 AUDIO
    TITLE "TOEIC LR Kinnojyukugo_10_0367"
    INDEX 01 08:18:24
  TRACK 368 AUDIO
    TITLE "TOEIC LR Kinnojyukugo_10_0368"
    INDEX 01 08:18:63
  TRACK 369 AUDIO
    TITLE "TOEIC LR Kinnojyukugo_10_0369"
    INDEX 01 08:21:16
  TRACK 370 AUDIO
    TITLE "TOEIC LR Kinnojyukugo_10_0370"
    INDEX 01 08:21:40
  TRACK 371 AUDIO
    TITLE "TOEIC LR Kinnojyukugo_10_0371"
    INDEX 01 08:23:68
  TRACK 372 AUDIO
    TITLE "TOEIC LR Kinnojyukugo_10_0372"
    INDEX 01 08:24:68
  TRACK 373 AUDIO
    TITLE "TOEIC LR Kinnojyukugo_10_0373"
    INDEX 01 08:25:61
  TRACK 374 AUDIO
    TITLE "TOEIC LR Kinnojyukugo_10_0374"
    INDEX 01 08:26:35
  TRACK 375 AUDIO
    TITLE "TOEIC LR Kinnojyukugo_10_0375"
    INDEX 01 08:27:48
  TRACK 376 AUDIO
    TITLE "TOEIC LR Kinnojyukugo_10_0376"
    INDEX 01 08:28:13
  TRACK 377 AUDIO
    TITLE "TOEIC LR Kinnojyukugo_10_0377"
    INDEX 01 08:31:40
  TRACK 378 AUDIO
    TITLE "TOEIC LR Kinnojyukugo_10_0378"
    INDEX 01 08:32:02
  TRACK 379 AUDIO
    TITLE "TOEIC LR Kinnojyukugo_10_0379"
    INDEX 01 08:34:58
  TRACK 380 AUDIO
    TITLE "TOEIC LR Kinnojyukugo_10_0380"
    INDEX 01 08:35:20
  TRACK 381 AUDIO
    TITLE "TOEIC LR Kinnojyukugo_10_0381"
    INDEX 01 08:38:01
  TRACK 382 AUDIO
    TITLE "TOEIC LR Kinnojyukugo_10_0382"
    INDEX 01 08:39:12
  TRACK 383 AUDIO
    TITLE "TOEIC LR Kinnojyukugo_10_0383"
    INDEX 01 08:40:29
  TRACK 384 AUDIO
    TITLE "TOEIC LR Kinnojyukugo_10_0384"
    INDEX 01 08:40:67
  TRACK 385 AUDIO
    TITLE "TOEIC LR Kinnojyukugo_10_0385"
    INDEX 01 08:42:52
  TRACK 386 AUDIO
    TITLE "TOEIC LR Kinnojyukugo_10_0386"
    INDEX 01 08:43:16
  TRACK 387 AUDIO
    TITLE "TOEIC LR Kinnojyukugo_10_0387"
    INDEX 01 08:47:47
  TRACK 388 AUDIO
    TITLE "TOEIC LR Kinnojyukugo_10_0388"
    INDEX 01 08:48:11
  TRACK 389 AUDIO
    TITLE "TOEIC LR Kinnojyukugo_10_0389"
    INDEX 01 08:51:57
  TRACK 390 AUDIO
    TITLE "TOEIC LR Kinnojyukugo_10_0390"
    INDEX 01 08:52:07
  TRACK 391 AUDIO
    TITLE "TOEIC LR Kinnojyukugo_10_0391"
    INDEX 01 08:55:54
  TRACK 392 AUDIO
    TITLE "TOEIC LR Kinnojyukugo_10_0392"
    INDEX 01 08:56:56
  TRACK 393 AUDIO
    TITLE "TOEIC LR Kinnojyukugo_10_0393"
    INDEX 01 08:57:71
  TRACK 394 AUDIO
    TITLE "TOEIC LR Kinnojyukugo_10_0394"
    INDEX 01 08:58:35
  TRACK 395 AUDIO
    TITLE "TOEIC LR Kinnojyukugo_10_0395"
    INDEX 01 09:00:73
  TRACK 396 AUDIO
    TITLE "TOEIC LR Kinnojyukugo_10_0396"
    INDEX 01 09:01:35
  TRACK 397 AUDIO
    TITLE "TOEIC LR Kinnojyukugo_10_0397"
    INDEX 01 09:04:34
  TRACK 398 AUDIO
    TITLE "TOEIC LR Kinnojyukugo_10_0398"
    INDEX 01 09:05:10
  TRACK 399 AUDIO
    TITLE "TOEIC LR Kinnojyukugo_10_0399"
    INDEX 01 09:07:30
  TRACK 400 AUDIO
    TITLE "TOEIC LR Kinnojyukugo_10_0400"
    INDEX 01 09:07:58
  TRACK 401 AUDIO
    TITLE "TOEIC LR Kinnojyukugo_10_0401"
    INDEX 01 09:10:03
  TRACK 402 AUDIO
    TITLE "TOEIC LR Kinnojyukugo_10_0402"
    INDEX 01 09:11:03
  TRACK 403 AUDIO
    TITLE "TOEIC LR Kinnojyukugo_10_0403"
    INDEX 01 09:12:16
  TRACK 404 AUDIO
    TITLE "TOEIC LR Kinnojyukugo_10_0404"
    INDEX 01 09:12:53
  TRACK 405 AUDIO
    TITLE "TOEIC LR Kinnojyukugo_10_0405"
    INDEX 01 09:15:24
  TRACK 406 AUDIO
    TITLE "TOEIC LR Kinnojyukugo_10_0406"
    INDEX 01 09:15:67
  TRACK 407 AUDIO
    TITLE "TOEIC LR Kinnojyukugo_10_0407"
    INDEX 01 09:18:38
  TRACK 408 AUDIO
    TITLE "TOEIC LR Kinnojyukugo_10_0408"
    INDEX 01 09:18:75
  TRACK 409 AUDIO
    TITLE "TOEIC LR Kinnojyukugo_10_0409"
    INDEX 01 09:21:32
  TRACK 410 AUDIO
    TITLE "TOEIC LR Kinnojyukugo_10_0410"
    INDEX 01 09:21:56
  TRACK 411 AUDIO
    TITLE "TOEIC LR Kinnojyukugo_10_0411"
    INDEX 01 09:24:11
  TRACK 412 AUDIO
    TITLE "TOEIC LR Kinnojyukugo_10_0412"
    INDEX 01 09:25:12
  TRACK 413 AUDIO
    TITLE "TOEIC LR Kinnojyukugo_10_0413"
    INDEX 01 09:26:24
  TRACK 414 AUDIO
    TITLE "TOEIC LR Kinnojyukugo_10_0414"
    INDEX 01 09:26:61
  TRACK 415 AUDIO
    TITLE "TOEIC LR Kinnojyukugo_10_0415"
    INDEX 01 09:29:02
  TRACK 416 AUDIO
    TITLE "TOEIC LR Kinnojyukugo_10_0416"
    INDEX 01 09:29:44
  TRACK 417 AUDIO
    TITLE "TOEIC LR Kinnojyukugo_10_0417"
    INDEX 01 09:32:54
  TRACK 418 AUDIO
    TITLE "TOEIC LR Kinnojyukugo_10_0418"
    INDEX 01 09:33:16
  TRACK 419 AUDIO
    TITLE "TOEIC LR Kinnojyukugo_10_0419"
    INDEX 01 09:35:27
  TRACK 420 AUDIO
    TITLE "TOEIC LR Kinnojyukugo_10_0420"
    INDEX 01 09:35:56
  TRACK 421 AUDIO
    TITLE "TOEIC LR Kinnojyukugo_10_0421"
    INDEX 01 09:37:67
  TRACK 422 AUDIO
    TITLE "TOEIC LR Kinnojyukugo_10_0422"
    INDEX 01 09:38:74
  TRACK 423 AUDIO
    TITLE "TOEIC LR Kinnojyukugo_10_0423"
    INDEX 01 09:41:02
  TRACK 424 AUDIO
    TITLE "TOEIC LR Kinnojyukugo_10_0424"
    INDEX 01 09:41:41
  TRACK 425 AUDIO
    TITLE "TOEIC LR Kinnojyukugo_10_0425"
    INDEX 01 09:45:54
  TRACK 426 AUDIO
    TITLE "TOEIC LR Kinnojyukugo_10_0426"
    INDEX 01 09:46:20
  TRACK 427 AUDIO
    TITLE "TOEIC LR Kinnojyukugo_10_0427"
    INDEX 01 09:48:53
  TRACK 428 AUDIO
    TITLE "TOEIC LR Kinnojyukugo_10_0428"
    INDEX 01 09:49:17
  TRACK 429 AUDIO
    TITLE "TOEIC LR Kinnojyukugo_10_0429"
    INDEX 01 09:51:59
  TRACK 430 AUDIO
    TITLE "TOEIC LR Kinnojyukugo_10_0430"
    INDEX 01 09:52:07
  TRACK 431 AUDIO
    TITLE "TOEIC LR Kinnojyukugo_10_0431"
    INDEX 01 09:54:49
  TRACK 432 AUDIO
    TITLE "TOEIC LR Kinnojyukugo_10_0432"
    INDEX 01 09:55:49
  TRACK 433 AUDIO
    TITLE "TOEIC LR Kinnojyukugo_10_0433"
    INDEX 01 09:56:72
  TRACK 434 AUDIO
    TITLE "TOEIC LR Kinnojyukugo_10_0434"
    INDEX 01 09:57:32
  TRACK 435 AUDIO
    TITLE "TOEIC LR Kinnojyukugo_10_0435"
    INDEX 01 10:00:17
  TRACK 436 AUDIO
    TITLE "TOEIC LR Kinnojyukugo_10_0436"
    INDEX 01 10:00:68
  TRACK 437 AUDIO
    TITLE "TOEIC LR Kinnojyukugo_10_0437"
    INDEX 01 10:03:46
  TRACK 438 AUDIO
    TITLE "TOEIC LR Kinnojyukugo_10_0438"
    INDEX 01 10:04:11
  TRACK 439 AUDIO
    TITLE "TOEIC LR Kinnojyukugo_10_0439"
    INDEX 01 10:06:70
  TRACK 440 AUDIO
    TITLE "TOEIC LR Kinnojyukugo_10_0440"
    INDEX 01 10:07:21
  TRACK 441 AUDIO
    TITLE "TOEIC LR Kinnojyukugo_10_0441"
    INDEX 01 10:10:05
  TRACK 442 AUDIO
    TITLE "TOEIC LR Kinnojyukugo_10_0442"
    INDEX 01 10:11:05
  TRACK 443 AUDIO
    TITLE "TOEIC LR Kinnojyukugo_10_0443"
    INDEX 01 10:12:47
  TRACK 444 AUDIO
    TITLE "TOEIC LR Kinnojyukugo_10_0444"
    INDEX 01 10:13:10
  TRACK 445 AUDIO
    TITLE "TOEIC LR Kinnojyukugo_10_0445"
    INDEX 01 10:16:08
  TRACK 446 AUDIO
    TITLE "TOEIC LR Kinnojyukugo_10_0446"
    INDEX 01 10:16:45
  TRACK 447 AUDIO
    TITLE "TOEIC LR Kinnojyukugo_10_0447"
    INDEX 01 10:18:44
  TRACK 448 AUDIO
    TITLE "TOEIC LR Kinnojyukugo_10_0448"
    INDEX 01 10:19:08
  TRACK 449 AUDIO
    TITLE "TOEIC LR Kinnojyukugo_10_0449"
    INDEX 01 10:21:29
  TRACK 450 AUDIO
    TITLE "TOEIC LR Kinnojyukugo_10_0450"
    INDEX 01 10:21:52
  TRACK 451 AUDIO
    TITLE "TOEIC LR Kinnojyukugo_10_0451"
    INDEX 01 10:23:75
  TRACK 452 AUDIO
    TITLE "TOEIC LR Kinnojyukugo_10_0452"
    INDEX 01 10:24:74
  TRACK 453 AUDIO
    TITLE "TOEIC LR Kinnojyukugo_10_0453"
    INDEX 01 10:26:20
  TRACK 454 AUDIO
    TITLE "TOEIC LR Kinnojyukugo_10_0454"
    INDEX 01 10:26:57
  TRACK 455 AUDIO
    TITLE "TOEIC LR Kinnojyukugo_10_0455"
    INDEX 01 10:27:59
  TRACK 456 AUDIO
    TITLE "TOEIC LR Kinnojyukugo_10_0456"
    INDEX 01 10:28:23
  TRACK 457 AUDIO
    TITLE "TOEIC LR Kinnojyukugo_10_0457"
    INDEX 01 10:31:39
  TRACK 458 AUDIO
    TITLE "TOEIC LR Kinnojyukugo_10_0458"
    INDEX 01 10:32:05
  TRACK 459 AUDIO
    TITLE "TOEIC LR Kinnojyukugo_10_0459"
    INDEX 01 10:35:11
  TRACK 460 AUDIO
    TITLE "TOEIC LR Kinnojyukugo_10_0460"
    INDEX 01 10:35:35
  TRACK 461 AUDIO
    TITLE "TOEIC LR Kinnojyukugo_10_0461"
    INDEX 01 10:38:41
  TRACK 462 AUDIO
    TITLE "TOEIC LR Kinnojyukugo_10_0462"
    INDEX 01 10:39:40
  TRACK 463 AUDIO
    TITLE "TOEIC LR Kinnojyukugo_10_0463"
    INDEX 01 10:40:75
  TRACK 464 AUDIO
    TITLE "TOEIC LR Kinnojyukugo_10_0464"
    INDEX 01 10:41:37
  TRACK 465 AUDIO
    TITLE "TOEIC LR Kinnojyukugo_10_0465"
    INDEX 01 10:42:72
  TRACK 466 AUDIO
    TITLE "TOEIC LR Kinnojyukugo_10_0466"
    INDEX 01 10:43:34
  TRACK 467 AUDIO
    TITLE "TOEIC LR Kinnojyukugo_10_0467"
    INDEX 01 10:45:25
  TRACK 468 AUDIO
    TITLE "TOEIC LR Kinnojyukugo_10_0468"
    INDEX 01 10:45:62
  TRACK 469 AUDIO
    TITLE "TOEIC LR Kinnojyukugo_10_0469"
    INDEX 01 10:47:28
  TRACK 470 AUDIO
    TITLE "TOEIC LR Kinnojyukugo_10_0470"
    INDEX 01 10:47:48
  TRACK 471 AUDIO
    TITLE "TOEIC LR Kinnojyukugo_10_0471"
    INDEX 01 10:49:15
  TRACK 472 AUDIO
    TITLE "TOEIC LR Kinnojyukugo_10_0472"
    INDEX 01 10:50:17
  TRACK 473 AUDIO
    TITLE "TOEIC LR Kinnojyukugo_10_0473"
    INDEX 01 10:51:47
  TRACK 474 AUDIO
    TITLE "TOEIC LR Kinnojyukugo_10_0474"
    INDEX 01 10:52:17
  TRACK 475 AUDIO
    TITLE "TOEIC LR Kinnojyukugo_10_0475"
    INDEX 01 10:54:22
  TRACK 476 AUDIO
    TITLE "TOEIC LR Kinnojyukugo_10_0476"
    INDEX 01 10:54:59
  TRACK 477 AUDIO
    TITLE "TOEIC LR Kinnojyukugo_10_0477"
    INDEX 01 10:58:20
  TRACK 478 AUDIO
    TITLE "TOEIC LR Kinnojyukugo_10_0478"
    INDEX 01 10:58:59
  TRACK 479 AUDIO
    TITLE "TOEIC LR Kinnojyukugo_10_0479"
    INDEX 01 11:02:26
  TRACK 480 AUDIO
    TITLE "TOEIC LR Kinnojyukugo_10_0480"
    INDEX 01 11:02:59
  TRACK 481 AUDIO
    TITLE "TOEIC LR Kinnojyukugo_10_0481"
    INDEX 01 11:06:27
  TRACK 482 AUDIO
    TITLE "TOEIC LR Kinnojyukugo_10_0482"
    INDEX 01 11:07:33
  TRACK 483 AUDIO
    TITLE "TOEIC LR Kinnojyukugo_10_0483"
    INDEX 01 11:08:60
  TRACK 484 AUDIO
    TITLE "TOEIC LR Kinnojyukugo_10_0484"
    INDEX 01 11:09:22
  TRACK 485 AUDIO
    TITLE "TOEIC LR Kinnojyukugo_10_0485"
    INDEX 01 11:11:66
  TRACK 486 AUDIO
    TITLE "TOEIC LR Kinnojyukugo_10_0486"
    INDEX 01 11:12:28
  TRACK 487 AUDIO
    TITLE "TOEIC LR Kinnojyukugo_10_0487"
    INDEX 01 11:14:62
  TRACK 488 AUDIO
    TITLE "TOEIC LR Kinnojyukugo_10_0488"
    INDEX 01 11:15:26
  TRACK 489 AUDIO
    TITLE "TOEIC LR Kinnojyukugo_10_0489"
    INDEX 01 11:17:27
  TRACK 490 AUDIO
    TITLE "TOEIC LR Kinnojyukugo_10_0490"
    INDEX 01 11:17:53
  TRACK 491 AUDIO
    TITLE "TOEIC LR Kinnojyukugo_10_0491"
    INDEX 01 11:19:55
  TRACK 492 AUDIO
    TITLE "TOEIC LR Kinnojyukugo_10_0492"
    INDEX 01 11:20:55
  TRACK 493 AUDIO
    TITLE "TOEIC LR Kinnojyukugo_10_0493"
    INDEX 01 11:22:40
  TRACK 494 AUDIO
    TITLE "TOEIC LR Kinnojyukugo_10_0494"
    INDEX 01 11:23:06
  TRACK 495 AUDIO
    TITLE "TOEIC LR Kinnojyukugo_10_0495"
    INDEX 01 11:24:59
  TRACK 496 AUDIO
    TITLE "TOEIC LR Kinnojyukugo_10_0496"
    INDEX 01 11:25:25
  TRACK 497 AUDIO
    TITLE "TOEIC LR Kinnojyukugo_10_0497"
    INDEX 01 11:28:45
  TRACK 498 AUDIO
    TITLE "TOEIC LR Kinnojyukugo_10_0498"
    INDEX 01 11:29:13
  TRACK 499 AUDIO
    TITLE "TOEIC LR Kinnojyukugo_10_0499"
    INDEX 01 11:32:03
  TRACK 500 AUDIO
    TITLE "TOEIC LR Kinnojyukugo_10_0500"
    INDEX 01 11:32:27
  TRACK 501 AUDIO
    TITLE "TOEIC LR Kinnojyukugo_10_0501"
    INDEX 01 11:35:17
  TRACK 502 AUDIO
    TITLE "TOEIC LR Kinnojyukugo_10_0502"
    INDEX 01 11:36:17
  TRACK 503 AUDIO
    TITLE "TOEIC LR Kinnojyukugo_10_0503"
    INDEX 01 11:37:59
  TRACK 504 AUDIO
    TITLE "TOEIC LR Kinnojyukugo_10_0504"
    INDEX 01 11:38:29
  TRACK 505 AUDIO
    TITLE "TOEIC LR Kinnojyukugo_10_0505"
    INDEX 01 11:39:54
  TRACK 506 AUDIO
    TITLE "TOEIC LR Kinnojyukugo_10_0506"
    INDEX 01 11:40:20
  TRACK 507 AUDIO
    TITLE "TOEIC LR Kinnojyukugo_10_0507"
    INDEX 01 11:42:04
  TRACK 508 AUDIO
    TITLE "TOEIC LR Kinnojyukugo_10_0508"
    INDEX 01 11:42:51
  TRACK 509 AUDIO
    TITLE "TOEIC LR Kinnojyukugo_10_0509"
    INDEX 01 11:44:67
  TRACK 510 AUDIO
    TITLE "TOEIC LR Kinnojyukugo_10_0510"
    INDEX 01 11:45:21
  TRACK 511 AUDIO
    TITLE "TOEIC LR Kinnojyukugo_10_0511"
    INDEX 01 11:47:38
  TRACK 512 AUDIO
    TITLE "TOEIC LR Kinnojyukugo_10_0512"
    INDEX 01 11:48:39
  TRACK 513 AUDIO
    TITLE "TOEIC LR Kinnojyukugo_10_0513"
    INDEX 01 11:50:09
  TRACK 514 AUDIO
    TITLE "TOEIC LR Kinnojyukugo_10_0514"
    INDEX 01 11:50:48
  TRACK 515 AUDIO
    TITLE "TOEIC LR Kinnojyukugo_10_0515"
    INDEX 01 11:52:29
  TRACK 516 AUDIO
    TITLE "TOEIC LR Kinnojyukugo_10_0516"
    INDEX 01 11:52:67
  TRACK 517 AUDIO
    TITLE "TOEIC LR Kinnojyukugo_10_0517"
    INDEX 01 11:55:73
  TRACK 518 AUDIO
    TITLE "TOEIC LR Kinnojyukugo_10_0518"
    INDEX 01 11:56:39
  TRACK 519 AUDIO
    TITLE "TOEIC LR Kinnojyukugo_10_0519"
    INDEX 01 11:59:08
  TRACK 520 AUDIO
    TITLE "TOEIC LR Kinnojyukugo_10_0520"
    INDEX 01 11:59:33
  TRACK 521 AUDIO
    TITLE "TOEIC LR Kinnojyukugo_10_0521"
    INDEX 01 12:01:75
  TRACK 522 AUDIO
    TITLE "TOEIC LR Kinnojyukugo_10_0522"
    INDEX 01 12:03:06
  TRACK 523 AUDIO
    TITLE "TOEIC LR Kinnojyukugo_10_0523"
    INDEX 01 12:04:44
  TRACK 524 AUDIO
    TITLE "TOEIC LR Kinnojyukugo_10_0524"
    INDEX 01 12:05:09
  TRACK 525 AUDIO
    TITLE "TOEIC LR Kinnojyukugo_10_0525"
    INDEX 01 12:07:31
  TRACK 526 AUDIO
    TITLE "TOEIC LR Kinnojyukugo_10_0526"
    INDEX 01 12:07:62
  TRACK 527 AUDIO
    TITLE "TOEIC LR Kinnojyukugo_10_0527"
    INDEX 01 12:11:05
  TRACK 528 AUDIO
    TITLE "TOEIC LR Kinnojyukugo_10_0528"
    INDEX 01 12:11:50
  TRACK 529 AUDIO
    TITLE "TOEIC LR Kinnojyukugo_10_0529"
    INDEX 01 12:15:27
  TRACK 530 AUDIO
    TITLE "TOEIC LR Kinnojyukugo_10_0530"
    INDEX 01 12:15:58
  TRACK 531 AUDIO
    TITLE "TOEIC LR Kinnojyukugo_10_0531"
    INDEX 01 12:19:34
  TRACK 532 AUDIO
    TITLE "TOEIC LR Kinnojyukugo_10_0532"
    INDEX 01 12:20:39
  TRACK 533 AUDIO
    TITLE "TOEIC LR Kinnojyukugo_10_0533"
    INDEX 01 12:22:54
  TRACK 534 AUDIO
    TITLE "TOEIC LR Kinnojyukugo_10_0534"
    INDEX 01 12:23:22
  TRACK 535 AUDIO
    TITLE "TOEIC LR Kinnojyukugo_10_0535"
    INDEX 01 12:25:23
  TRACK 536 AUDIO
    TITLE "TOEIC LR Kinnojyukugo_10_0536"
    INDEX 01 12:25:62
  TRACK 537 AUDIO
    TITLE "TOEIC LR Kinnojyukugo_10_0537"
    INDEX 01 12:28:66
  TRACK 538 AUDIO
    TITLE "TOEIC LR Kinnojyukugo_10_0538"
    INDEX 01 12:29:33
  TRACK 539 AUDIO
    TITLE "TOEIC LR Kinnojyukugo_10_0539"
    INDEX 01 12:32:33
  TRACK 540 AUDIO
    TITLE "TOEIC LR Kinnojyukugo_10_0540"
    INDEX 01 12:32:58
  TRACK 541 AUDIO
    TITLE "TOEIC LR Kinnojyukugo_10_0541"
    INDEX 01 12:35:61
  TRACK 542 AUDIO
    TITLE "TOEIC LR Kinnojyukugo_10_0542"
    INDEX 01 12:36:60
  TRACK 543 AUDIO
    TITLE "TOEIC LR Kinnojyukugo_10_0543"
    INDEX 01 12:38:24
  TRACK 544 AUDIO
    TITLE "TOEIC LR Kinnojyukugo_10_0544"
    INDEX 01 12:38:63
  TRACK 545 AUDIO
    TITLE "TOEIC LR Kinnojyukugo_10_0545"
    INDEX 01 12:40:11
  TRACK 546 AUDIO
    TITLE "TOEIC LR Kinnojyukugo_10_0546"
    INDEX 01 12:40:48
  TRACK 547 AUDIO
    TITLE "TOEIC LR Kinnojyukugo_10_0547"
    INDEX 01 12:43:64
  TRACK 548 AUDIO
    TITLE "TOEIC LR Kinnojyukugo_10_0548"
    INDEX 01 12:44:30
  TRACK 549 AUDIO
    TITLE "TOEIC LR Kinnojyukugo_10_0549"
    INDEX 01 12:46:68
  TRACK 550 AUDIO
    TITLE "TOEIC LR Kinnojyukugo_10_0550"
    INDEX 01 12:47:28
  TRACK 551 AUDIO
    TITLE "TOEIC LR Kinnojyukugo_10_0551"
    INDEX 01 12:49:65
  TRACK 552 AUDIO
    TITLE "TOEIC LR Kinnojyukugo_10_0552"
    INDEX 01 12:50:72
  TRACK 553 AUDIO
    TITLE "TOEIC LR Kinnojyukugo_10_0553"
    INDEX 01 12:52:59
  TRACK 554 AUDIO
    TITLE "TOEIC LR Kinnojyukugo_10_0554"
    INDEX 01 12:53:21
  TRACK 555 AUDIO
    TITLE "TOEIC LR Kinnojyukugo_10_0555"
    INDEX 01 12:54:62
  TRACK 556 AUDIO
    TITLE "TOEIC LR Kinnojyukugo_10_0556"
    INDEX 01 12:55:34
  TRACK 557 AUDIO
    TITLE "TOEIC LR Kinnojyukugo_10_0557"
    INDEX 01 12:58:07
  TRACK 558 AUDIO
    TITLE "TOEIC LR Kinnojyukugo_10_0558"
    INDEX 01 12:58:46
  TRACK 559 AUDIO
    TITLE "TOEIC LR Kinnojyukugo_10_0559"
    INDEX 01 13:01:31
  TRACK 560 AUDIO
    TITLE "TOEIC LR Kinnojyukugo_10_0560"
    INDEX 01 13:01:52
  TRACK 561 AUDIO
    TITLE "TOEIC LR Kinnojyukugo_10_0561"
    INDEX 01 13:04:39
  TRACK 562 AUDIO
    TITLE "TOEIC LR Kinnojyukugo_10_0562"
    INDEX 01 13:05:34
  TRACK 563 AUDIO
    TITLE "TOEIC LR Kinnojyukugo_10_0563"
    INDEX 01 13:07:10
  TRACK 564 AUDIO
    TITLE "TOEIC LR Kinnojyukugo_10_0564"
    INDEX 01 13:07:51
  TRACK 565 AUDIO
    TITLE "TOEIC LR Kinnojyukugo_10_0565"
    INDEX 01 13:08:52
  TRACK 566 AUDIO
    TITLE "TOEIC LR Kinnojyukugo_10_0566"
    INDEX 01 13:09:18
  TRACK 567 AUDIO
    TITLE "TOEIC LR Kinnojyukugo_10_0567"
    INDEX 01 13:11:64
  TRACK 568 AUDIO
    TITLE "TOEIC LR Kinnojyukugo_10_0568"
    INDEX 01 13:12:30
  TRACK 569 AUDIO
    TITLE "TOEIC LR Kinnojyukugo_10_0569"
    INDEX 01 13:15:15
  TRACK 570 AUDIO
    TITLE "TOEIC LR Kinnojyukugo_10_0570"
    INDEX 01 13:15:42
  TRACK 571 AUDIO
    TITLE "TOEIC LR Kinnojyukugo_10_0571"
    INDEX 01 13:18:25
  TRACK 572 AUDIO
    TITLE "TOEIC LR Kinnojyukugo_10_0572"
    INDEX 01 13:19:25
  TRACK 573 AUDIO
    TITLE "TOEIC LR Kinnojyukugo_10_0573"
    INDEX 01 13:20:65
  TRACK 574 AUDIO
    TITLE "TOEIC LR Kinnojyukugo_10_0574"
    INDEX 01 13:21:29
  TRACK 575 AUDIO
    TITLE "TOEIC LR Kinnojyukugo_10_0575"
    INDEX 01 13:23:52
  TRACK 576 AUDIO
    TITLE "TOEIC LR Kinnojyukugo_10_0576"
    INDEX 01 13:24:18
  TRACK 577 AUDIO
    TITLE "TOEIC LR Kinnojyukugo_10_0577"
    INDEX 01 13:26:42
  TRACK 578 AUDIO
    TITLE "TOEIC LR Kinnojyukugo_10_0578"
    INDEX 01 13:27:10
  TRACK 579 AUDIO
    TITLE "TOEIC LR Kinnojyukugo_10_0579"
    INDEX 01 13:29:25
  TRACK 580 AUDIO
    TITLE "TOEIC LR Kinnojyukugo_10_0580"
    INDEX 01 13:29:56
  TRACK 581 AUDIO
    TITLE "TOEIC LR Kinnojyukugo_10_0581"
    INDEX 01 13:31:73
  TRACK 582 AUDIO
    TITLE "TOEIC LR Kinnojyukugo_10_0582"
    INDEX 01 13:33:03
  TRACK 583 AUDIO
    TITLE "TOEIC LR Kinnojyukugo_10_0583"
    INDEX 01 13:34:28
  TRACK 584 AUDIO
    TITLE "TOEIC LR Kinnojyukugo_10_0584"
    INDEX 01 13:34:61
  TRACK 585 AUDIO
    TITLE "TOEIC LR Kinnojyukugo_10_0585"
    INDEX 01 13:35:71
  TRACK 586 AUDIO
    TITLE "TOEIC LR Kinnojyukugo_10_0586"
    INDEX 01 13:36:31
  TRACK 587 AUDIO
    TITLE "TOEIC LR Kinnojyukugo_10_0587"
    INDEX 01 13:39:25
  TRACK 588 AUDIO
    TITLE "TOEIC LR Kinnojyukugo_10_0588"
    INDEX 01 13:39:68
  TRACK 589 AUDIO
    TITLE "TOEIC LR Kinnojyukugo_10_0589"
    INDEX 01 13:42:26
  TRACK 590 AUDIO
    TITLE "TOEIC LR Kinnojyukugo_10_0590"
    INDEX 01 13:42:65
  TRACK 591 AUDIO
    TITLE "TOEIC LR Kinnojyukugo_10_0591"
    INDEX 01 13:45:22
  TRACK 592 AUDIO
    TITLE "TOEIC LR Kinnojyukugo_10_0592"
    INDEX 01 13:46:35
  TRACK 593 AUDIO
    TITLE "TOEIC LR Kinnojyukugo_10_0593"
    INDEX 01 13:47:62
  TRACK 594 AUDIO
    TITLE "TOEIC LR Kinnojyukugo_10_0594"
    INDEX 01 13:48:24
  TRACK 595 AUDIO
    TITLE "TOEIC LR Kinnojyukugo_10_0595"
    INDEX 01 13:50:17
  TRACK 596 AUDIO
    TITLE "TOEIC LR Kinnojyukugo_10_0596"
    INDEX 01 13:50:51
  TRACK 597 AUDIO
    TITLE "TOEIC LR Kinnojyukugo_10_0597"
    INDEX 01 13:54:05
  TRACK 598 AUDIO
    TITLE "TOEIC LR Kinnojyukugo_10_0598"
    INDEX 01 13:54:42
  TRACK 599 AUDIO
    TITLE "TOEIC LR Kinnojyukugo_10_0599"
    INDEX 01 13:56:75
  TRACK 600 AUDIO
    TITLE "TOEIC LR Kinnojyukugo_10_0600"
    INDEX 01 13:57:27
  TRACK 601 AUDIO
    TITLE "TOEIC LR Kinnojyukugo_10_0601"
    INDEX 01 13:59:59
  TRACK 602 AUDIO
    TITLE "TOEIC LR Kinnojyukugo_10_0602"
    INDEX 01 14:00:63
  TRACK 603 AUDIO
    TITLE "TOEIC LR Kinnojyukugo_10_0603"
    INDEX 01 14:02:26
  TRACK 604 AUDIO
    TITLE "TOEIC LR Kinnojyukugo_10_0604"
    INDEX 01 14:02:64
  TRACK 605 AUDIO
    TITLE "TOEIC LR Kinnojyukugo_10_0605"
    INDEX 01 14:04:19
  TRACK 606 AUDIO
    TITLE "TOEIC LR Kinnojyukugo_10_0606"
    INDEX 01 14:04:62
  TRACK 607 AUDIO
    TITLE "TOEIC LR Kinnojyukugo_10_0607"
    INDEX 01 14:06:63
  TRACK 608 AUDIO
    TITLE "TOEIC LR Kinnojyukugo_10_0608"
    INDEX 01 14:07:28
  TRACK 609 AUDIO
    TITLE "TOEIC LR Kinnojyukugo_10_0609"
    INDEX 01 14:10:20
  TRACK 610 AUDIO
    TITLE "TOEIC LR Kinnojyukugo_10_0610"
    INDEX 01 14:10:45
  TRACK 611 AUDIO
    TITLE "TOEIC LR Kinnojyukugo_10_0611"
    INDEX 01 14:13:38
  TRACK 612 AUDIO
    TITLE "TOEIC LR Kinnojyukugo_10_0612"
    INDEX 01 14:14:37
  TRACK 613 AUDIO
    TITLE "TOEIC LR Kinnojyukugo_10_0613"
    INDEX 01 14:16:25
  TRACK 614 AUDIO
    TITLE "TOEIC LR Kinnojyukugo_10_0614"
    INDEX 01 14:16:60
  TRACK 615 AUDIO
    TITLE "TOEIC LR Kinnojyukugo_10_0615"
    INDEX 01 14:18:41
  TRACK 616 AUDIO
    TITLE "TOEIC LR Kinnojyukugo_10_0616"
    INDEX 01 14:19:07
  TRACK 617 AUDIO
    TITLE "TOEIC LR Kinnojyukugo_10_0617"
    INDEX 01 14:22:19
  TRACK 618 AUDIO
    TITLE "TOEIC LR Kinnojyukugo_10_0618"
    INDEX 01 14:22:58
  TRACK 619 AUDIO
    TITLE "TOEIC LR Kinnojyukugo_10_0619"
    INDEX 01 14:25:70
  TRACK 620 AUDIO
    TITLE "TOEIC LR Kinnojyukugo_10_0620"
    INDEX 01 14:26:21
  TRACK 621 AUDIO
    TITLE "TOEIC LR Kinnojyukugo_10_0621"
    INDEX 01 14:29:33
  TRACK 622 AUDIO
    TITLE "TOEIC LR Kinnojyukugo_10_0622"
    INDEX 01 14:30:32
  TRACK 623 AUDIO
    TITLE "TOEIC LR Kinnojyukugo_10_0623"
    INDEX 01 14:31:59
  TRACK 624 AUDIO
    TITLE "TOEIC LR Kinnojyukugo_10_0624"
    INDEX 01 14:32:29
  TRACK 625 AUDIO
    TITLE "TOEIC LR Kinnojyukugo_10_0625"
    INDEX 01 14:35:08
  TRACK 626 AUDIO
    TITLE "TOEIC LR Kinnojyukugo_10_0626"
    INDEX 01 14:35:47
  TRACK 627 AUDIO
    TITLE "TOEIC LR Kinnojyukugo_10_0627"
    INDEX 01 14:39:31
  TRACK 628 AUDIO
    TITLE "TOEIC LR Kinnojyukugo_10_0628"
    INDEX 01 14:39:73
  TRACK 629 AUDIO
    TITLE "TOEIC LR Kinnojyukugo_10_0629"
    INDEX 01 14:42:75
  TRACK 630 AUDIO
    TITLE "TOEIC LR Kinnojyukugo_10_0630"
    INDEX 01 14:43:27
  TRACK 631 AUDIO
    TITLE "TOEIC LR Kinnojyukugo_10_0631"
    INDEX 01 14:46:31
  TRACK 632 AUDIO
    TITLE "TOEIC LR Kinnojyukugo_10_0632"
    INDEX 01 14:47:31
  TRACK 633 AUDIO
    TITLE "TOEIC LR Kinnojyukugo_10_0633"
    INDEX 01 14:48:32
  TRACK 634 AUDIO
    TITLE "TOEIC LR Kinnojyukugo_10_0634"
    INDEX 01 14:48:70
  TRACK 635 AUDIO
    TITLE "TOEIC LR Kinnojyukugo_10_0635"
    INDEX 01 14:51:11
  TRACK 636 AUDIO
    TITLE "TOEIC LR Kinnojyukugo_10_0636"
    INDEX 01 14:51:48
  TRACK 637 AUDIO
    TITLE "TOEIC LR Kinnojyukugo_10_0637"
    INDEX 01 14:54:09
  TRACK 638 AUDIO
    TITLE "TOEIC LR Kinnojyukugo_10_0638"
    INDEX 01 14:54:49
  TRACK 639 AUDIO
    TITLE "TOEIC LR Kinnojyukugo_10_0639"
    INDEX 01 14:57:41
  TRACK 640 AUDIO
    TITLE "TOEIC LR Kinnojyukugo_10_0640"
    INDEX 01 14:57:67
  TRACK 641 AUDIO
    TITLE "TOEIC LR Kinnojyukugo_10_0641"
    INDEX 01 15:00:57
  TRACK 642 AUDIO
    TITLE "TOEIC LR Kinnojyukugo_10_0642"
    INDEX 01 15:01:57
  TRACK 643 AUDIO
    TITLE "TOEIC LR Kinnojyukugo_10_0643"
    INDEX 01 15:02:70
  TRACK 644 AUDIO
    TITLE "TOEIC LR Kinnojyukugo_10_0644"
    INDEX 01 15:03:36
  TRACK 645 AUDIO
    TITLE "TOEIC LR Kinnojyukugo_10_0645"
    INDEX 01 15:06:22
  TRACK 646 AUDIO
    TITLE "TOEIC LR Kinnojyukugo_10_0646"
    INDEX 01 15:06:60
  TRACK 647 AUDIO
    TITLE "TOEIC LR Kinnojyukugo_10_0647"
    INDEX 01 15:08:39
  TRACK 648 AUDIO
    TITLE "TOEIC LR Kinnojyukugo_10_0648"
    INDEX 01 15:09:03
  TRACK 649 AUDIO
    TITLE "TOEIC LR Kinnojyukugo_10_0649"
    INDEX 01 15:10:44
  TRACK 650 AUDIO
    TITLE "TOEIC LR Kinnojyukugo_10_0650"
    INDEX 01 15:10:69
  TRACK 651 AUDIO
    TITLE "TOEIC LR Kinnojyukugo_10_0651"
    INDEX 01 15:12:37
  TRACK 652 AUDIO
    TITLE "TOEIC LR Kinnojyukugo_10_0652"
    INDEX 01 15:13:38
  TRACK 653 AUDIO
    TITLE "TOEIC LR Kinnojyukugo_10_0653"
    INDEX 01 15:15:39
  TRACK 654 AUDIO
    TITLE "TOEIC LR Kinnojyukugo_10_0654"
    INDEX 01 15:16:03
  TRACK 655 AUDIO
    TITLE "TOEIC LR Kinnojyukugo_10_0655"
    INDEX 01 15:17:18
  TRACK 656 AUDIO
    TITLE "TOEIC LR Kinnojyukugo_10_0656"
    INDEX 01 15:17:63
  TRACK 657 AUDIO
    TITLE "TOEIC LR Kinnojyukugo_10_0657"
    INDEX 01 15:20:19
  TRACK 658 AUDIO
    TITLE "TOEIC LR Kinnojyukugo_10_0658"
    INDEX 01 15:20:58
  TRACK 659 AUDIO
    TITLE "TOEIC LR Kinnojyukugo_10_0659"
    INDEX 01 15:24:07
  TRACK 660 AUDIO
    TITLE "TOEIC LR Kinnojyukugo_10_0660"
    INDEX 01 15:24:32
  TRACK 661 AUDIO
    TITLE "TOEIC LR Kinnojyukugo_10_0661"
    INDEX 01 15:27:56
  TRACK 662 AUDIO
    TITLE "TOEIC LR Kinnojyukugo_10_0662"
    INDEX 01 15:28:57
  TRACK 663 AUDIO
    TITLE "TOEIC LR Kinnojyukugo_10_0663"
    INDEX 01 15:30:27
  TRACK 664 AUDIO
    TITLE "TOEIC LR Kinnojyukugo_10_0664"
    INDEX 01 15:30:66
  TRACK 665 AUDIO
    TITLE "TOEIC LR Kinnojyukugo_10_0665"
    INDEX 01 15:32:22
  TRACK 666 AUDIO
    TITLE "TOEIC LR Kinnojyukugo_10_0666"
    INDEX 01 15:32:57
  TRACK 667 AUDIO
    TITLE "TOEIC LR Kinnojyukugo_10_0667"
    INDEX 01 15:36:16
  TRACK 668 AUDIO
    TITLE "TOEIC LR Kinnojyukugo_10_0668"
    INDEX 01 15:36:57
  TRACK 669 AUDIO
    TITLE "TOEIC LR Kinnojyukugo_10_0669"
    INDEX 01 15:39:63
  TRACK 670 AUDIO
    TITLE "TOEIC LR Kinnojyukugo_10_0670"
    INDEX 01 15:40:15
  TRACK 671 AUDIO
    TITLE "TOEIC LR Kinnojyukugo_10_0671"
    INDEX 01 15:43:22
  TRACK 672 AUDIO
    TITLE "TOEIC LR Kinnojyukugo_10_0672"
    INDEX 01 15:44:23
  TRACK 673 AUDIO
    TITLE "TOEIC LR Kinnojyukugo_10_0673"
    INDEX 01 15:45:50
  TRACK 674 AUDIO
    TITLE "TOEIC LR Kinnojyukugo_10_0674"
    INDEX 01 15:46:18
  TRACK 675 AUDIO
    TITLE "TOEIC LR Kinnojyukugo_10_0675"
    INDEX 01 15:49:50
  TRACK 676 AUDIO
    TITLE "TOEIC LR Kinnojyukugo_10_0676"
    INDEX 01 15:50:14
  TRACK 677 AUDIO
    TITLE "TOEIC LR Kinnojyukugo_10_0677"
    INDEX 01 15:52:44
  TRACK 678 AUDIO
    TITLE "TOEIC LR Kinnojyukugo_10_0678"
    INDEX 01 15:53:08
  TRACK 679 AUDIO
    TITLE "TOEIC LR Kinnojyukugo_10_0679"
    INDEX 01 15:55:62
  TRACK 680 AUDIO
    TITLE "TOEIC LR Kinnojyukugo_10_0680"
    INDEX 01 15:56:12
  TRACK 681 AUDIO
    TITLE "TOEIC LR Kinnojyukugo_10_0681"
    INDEX 01 15:58:68
  TRACK 682 AUDIO
    TITLE "TOEIC LR Kinnojyukugo_10_0682"
    INDEX 01 15:59:68
  TRACK 683 AUDIO
    TITLE "TOEIC LR Kinnojyukugo_10_0683"
    INDEX 01 16:01:21
  TRACK 684 AUDIO
    TITLE "TOEIC LR Kinnojyukugo_10_0684"
    INDEX 01 16:01:61
  TRACK 685 AUDIO
    TITLE "TOEIC LR Kinnojyukugo_10_0685"
    INDEX 01 16:03:38
  TRACK 686 AUDIO
    TITLE "TOEIC LR Kinnojyukugo_10_0686"
    INDEX 01 16:03:69
  TRACK 687 AUDIO
    TITLE "TOEIC LR Kinnojyukugo_10_0687"
    INDEX 01 16:07:20
  TRACK 688 AUDIO
    TITLE "TOEIC LR Kinnojyukugo_10_0688"
    INDEX 01 16:07:57
  TRACK 689 AUDIO
    TITLE "TOEIC LR Kinnojyukugo_10_0689"
    INDEX 01 16:10:50
  TRACK 690 AUDIO
    TITLE "TOEIC LR Kinnojyukugo_10_0690"
    INDEX 01 16:10:75
  TRACK 691 AUDIO
    TITLE "TOEIC LR Kinnojyukugo_10_0691"
    INDEX 01 16:13:68
  TRACK 692 AUDIO
    TITLE "TOEIC LR Kinnojyukugo_10_0692"
    INDEX 01 16:14:67
  TRACK 693 AUDIO
    TITLE "TOEIC LR Kinnojyukugo_10_0693"
    INDEX 01 16:17:58
  TRACK 694 AUDIO
    TITLE "TOEIC LR Kinnojyukugo_10_0694"
    INDEX 01 16:18:24
  TRACK 695 AUDIO
    TITLE "TOEIC LR Kinnojyukugo_10_0695"
    INDEX 01 16:20:15
  TRACK 696 AUDIO
    TITLE "TOEIC LR Kinnojyukugo_10_0696"
    INDEX 01 16:20:56
  TRACK 697 AUDIO
    TITLE "TOEIC LR Kinnojyukugo_10_0697"
    INDEX 01 16:23:70
  TRACK 698 AUDIO
    TITLE "TOEIC LR Kinnojyukugo_10_0698"
    INDEX 01 16:24:32
  TRACK 699 AUDIO
    TITLE "TOEIC LR Kinnojyukugo_10_0699"
    INDEX 01 16:27:09
  TRACK 700 AUDIO
    TITLE "TOEIC LR Kinnojyukugo_10_0700"
    INDEX 01 16:27:35
  TRACK 701 AUDIO
    TITLE "TOEIC LR Kinnojyukugo_10_0701"
    INDEX 01 16:30:11
  TRACK 702 AUDIO
    TITLE "TOEIC LR Kinnojyukugo_10_0702"
    INDEX 01 16:31:13
  TRACK 703 AUDIO
    TITLE "TOEIC LR Kinnojyukugo_10_0703"
    INDEX 01 16:33:21
  TRACK 704 AUDIO
    TITLE "TOEIC LR Kinnojyukugo_10_0704"
    INDEX 01 16:33:61
  TRACK 705 AUDIO
    TITLE "TOEIC LR Kinnojyukugo_10_0705"
    INDEX 01 16:36:61
  TRACK 706 AUDIO
    TITLE "TOEIC LR Kinnojyukugo_10_0706"
    INDEX 01 16:37:29
  TRACK 707 AUDIO
    TITLE "TOEIC LR Kinnojyukugo_10_0707"
    INDEX 01 16:40:22
  TRACK 708 AUDIO
    TITLE "TOEIC LR Kinnojyukugo_10_0708"
    INDEX 01 16:40:61
  TRACK 709 AUDIO
    TITLE "TOEIC LR Kinnojyukugo_10_0709"
    INDEX 01 16:43:61
  TRACK 710 AUDIO
    TITLE "TOEIC LR Kinnojyukugo_10_0710"
    INDEX 01 16:44:10
  TRACK 711 AUDIO
    TITLE "TOEIC LR Kinnojyukugo_10_0711"
    INDEX 01 16:47:12
  TRACK 712 AUDIO
    TITLE "TOEIC LR Kinnojyukugo_10_0712"
    INDEX 01 16:48:09
  TRACK 713 AUDIO
    TITLE "TOEIC LR Kinnojyukugo_10_0713"
    INDEX 01 16:49:30
  TRACK 714 AUDIO
    TITLE "TOEIC LR Kinnojyukugo_10_0714"
    INDEX 01 16:49:68
  TRACK 715 AUDIO
    TITLE "TOEIC LR Kinnojyukugo_10_0715"
    INDEX 01 16:51:31
  TRACK 716 AUDIO
    TITLE "TOEIC LR Kinnojyukugo_10_0716"
    INDEX 01 16:51:72
  TRACK 717 AUDIO
    TITLE "TOEIC LR Kinnojyukugo_10_0717"
    INDEX 01 16:54:10
  TRACK 718 AUDIO
    TITLE "TOEIC LR Kinnojyukugo_10_0718"
    INDEX 01 16:54:49
  TRACK 719 AUDIO
    TITLE "TOEIC LR Kinnojyukugo_10_0719"
    INDEX 01 16:57:55
  TRACK 720 AUDIO
    TITLE "TOEIC LR Kinnojyukugo_10_0720"
    INDEX 01 16:58:04
  TRACK 721 AUDIO
    TITLE "TOEIC LR Kinnojyukugo_10_0721"
    INDEX 01 17:01:14
  TRACK 722 AUDIO
    TITLE "TOEIC LR Kinnojyukugo_10_0722"
    INDEX 01 17:02:13
  TRACK 723 AUDIO
    TITLE "TOEIC LR Kinnojyukugo_10_0723"
    INDEX 01 17:03:46
  TRACK 724 AUDIO
    TITLE "TOEIC LR Kinnojyukugo_10_0724"
    INDEX 01 17:04:08
  TRACK 725 AUDIO
    TITLE "TOEIC LR Kinnojyukugo_10_0725"
    INDEX 01 17:05:35
  TRACK 726 AUDIO
    TITLE "TOEIC LR Kinnojyukugo_10_0726"
    INDEX 01 17:05:72
  TRACK 727 AUDIO
    TITLE "TOEIC LR Kinnojyukugo_10_0727"
    INDEX 01 17:07:54
  TRACK 728 AUDIO
    TITLE "TOEIC LR Kinnojyukugo_10_0728"
    INDEX 01 17:08:18
  TRACK 729 AUDIO
    TITLE "TOEIC LR Kinnojyukugo_10_0729"
    INDEX 01 17:10:72
  TRACK 730 AUDIO
    TITLE "TOEIC LR Kinnojyukugo_10_0730"
    INDEX 01 17:11:28
  TRACK 731 AUDIO
    TITLE "TOEIC LR Kinnojyukugo_10_0731"
    INDEX 01 17:14:07
  TRACK 732 AUDIO
    TITLE "TOEIC LR Kinnojyukugo_10_0732"
    INDEX 01 17:15:16
  TRACK 733 AUDIO
    TITLE "TOEIC LR Kinnojyukugo_10_0733"
    INDEX 01 17:17:03
  TRACK 734 AUDIO
    TITLE "TOEIC LR Kinnojyukugo_10_0734"
    INDEX 01 17:17:40
  TRACK 735 AUDIO
    TITLE "TOEIC LR Kinnojyukugo_10_0735"
    INDEX 01 17:20:15
  TRACK 736 AUDIO
    TITLE "TOEIC LR Kinnojyukugo_10_0736"
    INDEX 01 17:20:68
  TRACK 737 AUDIO
    TITLE "TOEIC LR Kinnojyukugo_10_0737"
    INDEX 01 17:23:12
  TRACK 738 AUDIO
    TITLE "TOEIC LR Kinnojyukugo_10_0738"
    INDEX 01 17:23:49
  TRACK 739 AUDIO
    TITLE "TOEIC LR Kinnojyukugo_10_0739"
    INDEX 01 17:26:30
  TRACK 740 AUDIO
    TITLE "TOEIC LR Kinnojyukugo_10_0740"
    INDEX 01 17:26:55
  TRACK 741 AUDIO
    TITLE "TOEIC LR Kinnojyukugo_10_0741"
    INDEX 01 17:29:36
  TRACK 742 AUDIO
    TITLE "TOEIC LR Kinnojyukugo_10_0742"
    INDEX 01 17:30:35
  TRACK 743 AUDIO
    TITLE "TOEIC LR Kinnojyukugo_10_0743"
    INDEX 01 17:32:09
  TRACK 744 AUDIO
    TITLE "TOEIC LR Kinnojyukugo_10_0744"
    INDEX 01 17:32:48
  TRACK 745 AUDIO
    TITLE "TOEIC LR Kinnojyukugo_10_0745"
    INDEX 01 17:33:75
  TRACK 746 AUDIO
    TITLE "TOEIC LR Kinnojyukugo_10_0746"
    INDEX 01 17:34:37
  TRACK 747 AUDIO
    TITLE "TOEIC LR Kinnojyukugo_10_0747"
    INDEX 01 17:37:08
  TRACK 748 AUDIO
    TITLE "TOEIC LR Kinnojyukugo_10_0748"
    INDEX 01 17:37:47
  TRACK 749 AUDIO
    TITLE "TOEIC LR Kinnojyukugo_10_0749"
    INDEX 01 17:40:41
  TRACK 750 AUDIO
    TITLE "TOEIC LR Kinnojyukugo_10_0750"
    INDEX 01 17:40:65
  TRACK 751 AUDIO
    TITLE "TOEIC LR Kinnojyukugo_10_0751"
    INDEX 01 17:43:57
  TRACK 752 AUDIO
    TITLE "TOEIC LR Kinnojyukugo_10_0752"
    INDEX 01 17:44:57
  TRACK 753 AUDIO
    TITLE "TOEIC LR Kinnojyukugo_10_0753"
    INDEX 01 17:46:17
  TRACK 754 AUDIO
    TITLE "TOEIC LR Kinnojyukugo_10_0754"
    INDEX 01 17:46:54
  TRACK 755 AUDIO
    TITLE "TOEIC LR Kinnojyukugo_10_0755"
    INDEX 01 17:49:58
  TRACK 756 AUDIO
    TITLE "TOEIC LR Kinnojyukugo_10_0756"
    INDEX 01 17:50:24
  TRACK 757 AUDIO
    TITLE "TOEIC LR Kinnojyukugo_10_0757"
    INDEX 01 17:52:74
  TRACK 758 AUDIO
    TITLE "TOEIC LR Kinnojyukugo_10_0758"
    INDEX 01 17:53:38
  TRACK 759 AUDIO
    TITLE "TOEIC LR Kinnojyukugo_10_0759"
    INDEX 01 17:56:48
  TRACK 760 AUDIO
    TITLE "TOEIC LR Kinnojyukugo_10_0760"
    INDEX 01 17:56:68
  TRACK 761 AUDIO
    TITLE "TOEIC LR Kinnojyukugo_10_0761"
    INDEX 01 18:00:03
  TRACK 762 AUDIO
    TITLE "TOEIC LR Kinnojyukugo_10_0762"
    INDEX 01 18:00:73
  TRACK 763 AUDIO
    TITLE "TOEIC LR Kinnojyukugo_10_0763"
    INDEX 01 18:02:27
  TRACK 764 AUDIO
    TITLE "TOEIC LR Kinnojyukugo_10_0764"
    INDEX 01 18:02:67
  TRACK 765 AUDIO
    TITLE "TOEIC LR Kinnojyukugo_10_0765"
    INDEX 01 18:06:60
  TRACK 766 AUDIO
    TITLE "TOEIC LR Kinnojyukugo_10_0766"
    INDEX 01 18:07:25
  TRACK 767 AUDIO
    TITLE "TOEIC LR Kinnojyukugo_10_0767"
    INDEX 01 18:09:43
  TRACK 768 AUDIO
    TITLE "TOEIC LR Kinnojyukugo_10_0768"
    INDEX 01 18:10:05
  TRACK 769 AUDIO
    TITLE "TOEIC LR Kinnojyukugo_10_0769"
    INDEX 01 18:12:28
  TRACK 770 AUDIO
    TITLE "TOEIC LR Kinnojyukugo_10_0770"
    INDEX 01 18:12:53
  TRACK 771 AUDIO
    TITLE "TOEIC LR Kinnojyukugo_10_0771"
    INDEX 01 18:15:01
  TRACK 772 AUDIO
    TITLE "TOEIC LR Kinnojyukugo_10_0772"
    INDEX 01 18:15:75
  TRACK 773 AUDIO
    TITLE "TOEIC LR Kinnojyukugo_10_0773"
    INDEX 01 18:17:27
  TRACK 774 AUDIO
    TITLE "TOEIC LR Kinnojyukugo_10_0774"
    INDEX 01 18:17:64
  TRACK 775 AUDIO
    TITLE "TOEIC LR Kinnojyukugo_10_0775"
    INDEX 01 18:19:10
  TRACK 776 AUDIO
    TITLE "TOEIC LR Kinnojyukugo_10_0776"
    INDEX 01 18:19:47
  TRACK 777 AUDIO
    TITLE "TOEIC LR Kinnojyukugo_10_0777"
    INDEX 01 18:22:08
  TRACK 778 AUDIO
    TITLE "TOEIC LR Kinnojyukugo_10_0778"
    INDEX 01 18:22:48
  TRACK 779 AUDIO
    TITLE "TOEIC LR Kinnojyukugo_10_0779"
    INDEX 01 18:25:19
  TRACK 780 AUDIO
    TITLE "TOEIC LR Kinnojyukugo_10_0780"
    INDEX 01 18:25:42
  TRACK 781 AUDIO
    TITLE "TOEIC LR Kinnojyukugo_10_0781"
    INDEX 01 18:28:13
  TRACK 782 AUDIO
    TITLE "TOEIC LR Kinnojyukugo_10_0782"
    INDEX 01 18:29:12
  TRACK 783 AUDIO
    TITLE "TOEIC LR Kinnojyukugo_10_0783"
    INDEX 01 18:30:51
  TRACK 784 AUDIO
    TITLE "TOEIC LR Kinnojyukugo_10_0784"
    INDEX 01 18:31:13
  TRACK 785 AUDIO
    TITLE "TOEIC LR Kinnojyukugo_10_0785"
    INDEX 01 18:33:75
  TRACK 786 AUDIO
    TITLE "TOEIC LR Kinnojyukugo_10_0786"
    INDEX 01 18:34:37
  TRACK 787 AUDIO
    TITLE "TOEIC LR Kinnojyukugo_10_0787"
    INDEX 01 18:36:65
  TRACK 788 AUDIO
    TITLE "TOEIC LR Kinnojyukugo_10_0788"
    INDEX 01 18:37:32
  TRACK 789 AUDIO
    TITLE "TOEIC LR Kinnojyukugo_10_0789"
    INDEX 01 18:40:04
  TRACK 790 AUDIO
    TITLE "TOEIC LR Kinnojyukugo_10_0790"
    INDEX 01 18:40:30
  TRACK 791 AUDIO
    TITLE "TOEIC LR Kinnojyukugo_10_0791"
    INDEX 01 18:43:05
  TRACK 792 AUDIO
    TITLE "TOEIC LR Kinnojyukugo_10_0792"
    INDEX 01 18:44:04
  TRACK 793 AUDIO
    TITLE "TOEIC LR Kinnojyukugo_10_0793"
    INDEX 01 18:45:19
  TRACK 794 AUDIO
    TITLE "TOEIC LR Kinnojyukugo_10_0794"
    INDEX 01 18:45:57
  TRACK 795 AUDIO
    TITLE "TOEIC LR Kinnojyukugo_10_0795"
    INDEX 01 18:46:56
  TRACK 796 AUDIO
    TITLE "TOEIC LR Kinnojyukugo_10_0796"
    INDEX 01 18:47:20
  TRACK 797 AUDIO
    TITLE "TOEIC LR Kinnojyukugo_10_0797"
    INDEX 01 18:48:61
  TRACK 798 AUDIO
    TITLE "TOEIC LR Kinnojyukugo_10_0798"
    INDEX 01 18:49:25
  TRACK 799 AUDIO
    TITLE "TOEIC LR Kinnojyukugo_10_0799"
    INDEX 01 18:51:14
  TRACK 800 AUDIO
    TITLE "TOEIC LR Kinnojyukugo_10_0800"
    INDEX 01 18:51:39
  TRACK 801 AUDIO
    TITLE "TOEIC LR Kinnojyukugo_10_0801"
    INDEX 01 18:53:27
  TRACK 802 AUDIO
    TITLE "TOEIC LR Kinnojyukugo_10_0802"
    INDEX 01 18:54:26
  TRACK 803 AUDIO
    TITLE "TOEIC LR Kinnojyukugo_10_0803"
    INDEX 01 18:55:55
  TRACK 804 AUDIO
    TITLE "TOEIC LR Kinnojyukugo_10_0804"
    INDEX 01 18:56:17
  TRACK 805 AUDIO
    TITLE "TOEIC LR Kinnojyukugo_10_0805"
    INDEX 01 18:57:36
  TRACK 806 AUDIO
    TITLE "TOEIC LR Kinnojyukugo_10_0806"
    INDEX 01 18:58:02
  TRACK 807 AUDIO
    TITLE "TOEIC LR Kinnojyukugo_10_0807"
    INDEX 01 19:02:24
  TRACK 808 AUDIO
    TITLE "TOEIC LR Kinnojyukugo_10_0808"
    INDEX 01 19:02:63
  TRACK 809 AUDIO
    TITLE "TOEIC LR Kinnojyukugo_10_0809"
    INDEX 01 19:07:19
  TRACK 810 AUDIO
    TITLE "TOEIC LR Kinnojyukugo_10_0810"
    INDEX 01 19:07:46
  TRACK 811 AUDIO
    TITLE "TOEIC LR Kinnojyukugo_10_0811"
    INDEX 01 19:12:01
  TRACK 812 AUDIO
    TITLE "TOEIC LR Kinnojyukugo_10_0812"
    INDEX 01 19:13:04
  TRACK 813 AUDIO
    TITLE "TOEIC LR Kinnojyukugo_10_0813"
    INDEX 01 19:14:35
  TRACK 814 AUDIO
    TITLE "TOEIC LR Kinnojyukugo_10_0814"
    INDEX 01 19:14:72
  TRACK 815 AUDIO
    TITLE "TOEIC LR Kinnojyukugo_10_0815"
    INDEX 01 19:15:73
  TRACK 816 AUDIO
    TITLE "TOEIC LR Kinnojyukugo_10_0816"
    INDEX 01 19:16:37
  TRACK 817 AUDIO
    TITLE "TOEIC LR Kinnojyukugo_10_0817"
    INDEX 01 19:18:13
  TRACK 818 AUDIO
    TITLE "TOEIC LR Kinnojyukugo_10_0818"
    INDEX 01 19:18:50
  TRACK 819 AUDIO
    TITLE "TOEIC LR Kinnojyukugo_10_0819"
    INDEX 01 19:20:73
  TRACK 820 AUDIO
    TITLE "TOEIC LR Kinnojyukugo_10_0820"
    INDEX 01 19:21:23
  TRACK 821 AUDIO
    TITLE "TOEIC LR Kinnojyukugo_10_0821"
    INDEX 01 19:23:45
  TRACK 822 AUDIO
    TITLE "TOEIC LR Kinnojyukugo_10_0822"
    INDEX 01 19:24:45
  TRACK 823 AUDIO
    TITLE "TOEIC LR Kinnojyukugo_10_0823"
    INDEX 01 19:26:22
  TRACK 824 AUDIO
    TITLE "TOEIC LR Kinnojyukugo_10_0824"
    INDEX 01 19:26:59
  TRACK 825 AUDIO
    TITLE "TOEIC LR Kinnojyukugo_10_0825"
    INDEX 01 19:28:25
  TRACK 826 AUDIO
    TITLE "TOEIC LR Kinnojyukugo_10_0826"
    INDEX 01 19:28:62
  TRACK 827 AUDIO
    TITLE "TOEIC LR Kinnojyukugo_10_0827"
    INDEX 01 19:31:39
  TRACK 828 AUDIO
    TITLE "TOEIC LR Kinnojyukugo_10_0828"
    INDEX 01 19:31:74
  TRACK 829 AUDIO
    TITLE "TOEIC LR Kinnojyukugo_10_0829"
    INDEX 01 19:35:11
  TRACK 830 AUDIO
    TITLE "TOEIC LR Kinnojyukugo_10_0830"
    INDEX 01 19:35:35
  TRACK 831 AUDIO
    TITLE "TOEIC LR Kinnojyukugo_10_0831"
    INDEX 01 19:38:47
  TRACK 832 AUDIO
    TITLE "TOEIC LR Kinnojyukugo_10_0832"
    INDEX 01 19:39:44
  TRACK 833 AUDIO
    TITLE "TOEIC LR Kinnojyukugo_10_0833"
    INDEX 01 19:41:06
  TRACK 834 AUDIO
    TITLE "TOEIC LR Kinnojyukugo_10_0834"
    INDEX 01 19:41:43
  TRACK 835 AUDIO
    TITLE "TOEIC LR Kinnojyukugo_10_0835"
    INDEX 01 19:42:62
  TRACK 836 AUDIO
    TITLE "TOEIC LR Kinnojyukugo_10_0836"
    INDEX 01 19:43:30
  TRACK 837 AUDIO
    TITLE "TOEIC LR Kinnojyukugo_10_0837"
    INDEX 01 19:46:01
  TRACK 838 AUDIO
    TITLE "TOEIC LR Kinnojyukugo_10_0838"
    INDEX 01 19:46:42
  TRACK 839 AUDIO
    TITLE "TOEIC LR Kinnojyukugo_10_0839"
    INDEX 01 19:49:33
  TRACK 840 AUDIO
    TITLE "TOEIC LR Kinnojyukugo_10_0840"
    INDEX 01 19:49:57
  TRACK 841 AUDIO
    TITLE "TOEIC LR Kinnojyukugo_10_0841"
    INDEX 01 19:52:49
  TRACK 842 AUDIO
    TITLE "TOEIC LR Kinnojyukugo_10_0842"
    INDEX 01 19:53:52
  TRACK 843 AUDIO
    TITLE "TOEIC LR Kinnojyukugo_10_0843"
    INDEX 01 19:55:08
  TRACK 844 AUDIO
    TITLE "TOEIC LR Kinnojyukugo_10_0844"
    INDEX 01 19:55:53
  TRACK 845 AUDIO
    TITLE "TOEIC LR Kinnojyukugo_10_0845"
    INDEX 01 19:59:51
  TRACK 846 AUDIO
    TITLE "TOEIC LR Kinnojyukugo_10_0846"
    INDEX 01 20:00:15
  TRACK 847 AUDIO
    TITLE "TOEIC LR Kinnojyukugo_10_0847"
    INDEX 01 20:02:51
  TRACK 848 AUDIO
    TITLE "TOEIC LR Kinnojyukugo_10_0848"
    INDEX 01 20:03:16
  TRACK 849 AUDIO
    TITLE "TOEIC LR Kinnojyukugo_10_0849"
    INDEX 01 20:05:34
  TRACK 850 AUDIO
    TITLE "TOEIC LR Kinnojyukugo_10_0850"
    INDEX 01 20:05:57
  TRACK 851 AUDIO
    TITLE "TOEIC LR Kinnojyukugo_10_0851"
    INDEX 01 20:08:01
  TRACK 852 AUDIO
    TITLE "TOEIC LR Kinnojyukugo_10_0852"
    INDEX 01 20:08:75
  TRACK 853 AUDIO
    TITLE "TOEIC LR Kinnojyukugo_10_0853"
    INDEX 01 20:10:57
  TRACK 854 AUDIO
    TITLE "TOEIC LR Kinnojyukugo_10_0854"
    INDEX 01 20:11:19
  TRACK 855 AUDIO
    TITLE "TOEIC LR Kinnojyukugo_10_0855"
    INDEX 01 20:14:07
  TRACK 856 AUDIO
    TITLE "TOEIC LR Kinnojyukugo_10_0856"
    INDEX 01 20:14:47
  TRACK 857 AUDIO
    TITLE "TOEIC LR Kinnojyukugo_10_0857"
    INDEX 01 20:18:03
  TRACK 858 AUDIO
    TITLE "TOEIC LR Kinnojyukugo_10_0858"
    INDEX 01 20:18:42
  TRACK 859 AUDIO
    TITLE "TOEIC LR Kinnojyukugo_10_0859"
    INDEX 01 20:21:21
  TRACK 860 AUDIO
    TITLE "TOEIC LR Kinnojyukugo_10_0860"
    INDEX 01 20:21:47
  TRACK 861 AUDIO
    TITLE "TOEIC LR Kinnojyukugo_10_0861"
    INDEX 01 20:24:29
  TRACK 862 AUDIO
    TITLE "TOEIC LR Kinnojyukugo_10_0862"
    INDEX 01 20:25:31
  TRACK 863 AUDIO
    TITLE "TOEIC LR Kinnojyukugo_10_0863"
    INDEX 01 20:27:16
  TRACK 864 AUDIO
    TITLE "TOEIC LR Kinnojyukugo_10_0864"
    INDEX 01 20:27:55
  TRACK 865 AUDIO
    TITLE "TOEIC LR Kinnojyukugo_10_0865"
    INDEX 01 20:29:74
  TRACK 866 AUDIO
    TITLE "TOEIC LR Kinnojyukugo_10_0866"
    INDEX 01 20:30:40
  TRACK 867 AUDIO
    TITLE "TOEIC LR Kinnojyukugo_10_0867"
    INDEX 01 20:35:49
  TRACK 868 AUDIO
    TITLE "TOEIC LR Kinnojyukugo_10_0868"
    INDEX 01 20:36:13
  TRACK 869 AUDIO
    TITLE "TOEIC LR Kinnojyukugo_10_0869"
    INDEX 01 20:40:01
  TRACK 870 AUDIO
    TITLE "TOEIC LR Kinnojyukugo_10_0870"
    INDEX 01 20:40:28
  TRACK 871 AUDIO
    TITLE "TOEIC LR Kinnojyukugo_10_0871"
    INDEX 01 20:44:16
  TRACK 872 AUDIO
    TITLE "TOEIC LR Kinnojyukugo_10_0872"
    INDEX 01 20:45:18
  TRACK 873 AUDIO
    TITLE "TOEIC LR Kinnojyukugo_10_0873"
    INDEX 01 20:46:55
  TRACK 874 AUDIO
    TITLE "TOEIC LR Kinnojyukugo_10_0874"
    INDEX 01 20:47:17
  TRACK 875 AUDIO
    TITLE "TOEIC LR Kinnojyukugo_10_0875"
    INDEX 01 20:48:44
  TRACK 876 AUDIO
    TITLE "TOEIC LR Kinnojyukugo_10_0876"
    INDEX 01 20:49:14
  TRACK 877 AUDIO
    TITLE "TOEIC LR Kinnojyukugo_10_0877"
    INDEX 01 20:51:71
  TRACK 878 AUDIO
    TITLE "TOEIC LR Kinnojyukugo_10_0878"
    INDEX 01 20:52:39
  TRACK 879 AUDIO
    TITLE "TOEIC LR Kinnojyukugo_10_0879"
    INDEX 01 20:56:16
  TRACK 880 AUDIO
    TITLE "TOEIC LR Kinnojyukugo_10_0880"
    INDEX 01 20:56:43
  TRACK 881 AUDIO
    TITLE "TOEIC LR Kinnojyukugo_10_0881"
    INDEX 01 21:00:19
  TRACK 882 AUDIO
    TITLE "TOEIC LR Kinnojyukugo_10_0882"
    INDEX 01 21:01:21
  TRACK 883 AUDIO
    TITLE "TOEIC LR Kinnojyukugo_10_0883"
    INDEX 01 21:02:34
  TRACK 884 AUDIO
    TITLE "TOEIC LR Kinnojyukugo_10_0884"
    INDEX 01 21:02:73
  TRACK 885 AUDIO
    TITLE "TOEIC LR Kinnojyukugo_10_0885"
    INDEX 01 21:04:23
  TRACK 886 AUDIO
    TITLE "TOEIC LR Kinnojyukugo_10_0886"
    INDEX 01 21:04:60
  TRACK 887 AUDIO
    TITLE "TOEIC LR Kinnojyukugo_10_0887"
    INDEX 01 21:08:38
  TRACK 888 AUDIO
    TITLE "TOEIC LR Kinnojyukugo_10_0888"
    INDEX 01 21:09:03
  TRACK 889 AUDIO
    TITLE "TOEIC LR Kinnojyukugo_10_0889"
    INDEX 01 21:12:30
  TRACK 890 AUDIO
    TITLE "TOEIC LR Kinnojyukugo_10_0890"
    INDEX 01 21:12:58
  TRACK 891 AUDIO
    TITLE "TOEIC LR Kinnojyukugo_10_0891"
    INDEX 01 21:16:13
  TRACK 892 AUDIO
    TITLE "TOEIC LR Kinnojyukugo_10_0892"
    INDEX 01 21:17:12
  TRACK 893 AUDIO
    TITLE "TOEIC LR Kinnojyukugo_10_0893"
    INDEX 01 21:18:13
  TRACK 894 AUDIO
    TITLE "TOEIC LR Kinnojyukugo_10_0894"
    INDEX 01 21:18:60
  TRACK 895 AUDIO
    TITLE "TOEIC LR Kinnojyukugo_10_0895"
    INDEX 01 21:20:55
  TRACK 896 AUDIO
    TITLE "TOEIC LR Kinnojyukugo_10_0896"
    INDEX 01 21:21:18
  TRACK 897 AUDIO
    TITLE "TOEIC LR Kinnojyukugo_10_0897"
    INDEX 01 21:23:62
  TRACK 898 AUDIO
    TITLE "TOEIC LR Kinnojyukugo_10_0898"
    INDEX 01 21:24:28
  TRACK 899 AUDIO
    TITLE "TOEIC LR Kinnojyukugo_10_0899"
    INDEX 01 21:26:52
  TRACK 900 AUDIO
    TITLE "TOEIC LR Kinnojyukugo_10_0900"
    INDEX 01 21:27:03
  TRACK 901 AUDIO
    TITLE "TOEIC LR Kinnojyukugo_10_0901"
    INDEX 01 21:29:27
  TRACK 902 AUDIO
    TITLE "TOEIC LR Kinnojyukugo_10_0902"
    INDEX 01 21:30:26
  TRACK 903 AUDIO
    TITLE "TOEIC LR Kinnojyukugo_10_0903"
    INDEX 01 21:31:55
  TRACK 904 AUDIO
    TITLE "TOEIC LR Kinnojyukugo_10_0904"
    INDEX 01 21:32:17
  TRACK 905 AUDIO
    TITLE "TOEIC LR Kinnojyukugo_10_0905"
    INDEX 01 21:33:25
  TRACK 906 AUDIO
    TITLE "TOEIC LR Kinnojyukugo_10_0906"
    INDEX 01 21:33:62
  TRACK 907 AUDIO
    TITLE "TOEIC LR Kinnojyukugo_10_0907"
    INDEX 01 21:36:41
  TRACK 908 AUDIO
    TITLE "TOEIC LR Kinnojyukugo_10_0908"
    INDEX 01 21:37:05
  TRACK 909 AUDIO
    TITLE "TOEIC LR Kinnojyukugo_10_0909"
    INDEX 01 21:40:23
  TRACK 910 AUDIO
    TITLE "TOEIC LR Kinnojyukugo_10_0910"
    INDEX 01 21:40:46
  TRACK 911 AUDIO
    TITLE "TOEIC LR Kinnojyukugo_10_0911"
    INDEX 01 21:43:64
  TRACK 912 AUDIO
    TITLE "TOEIC LR Kinnojyukugo_10_0912"
    INDEX 01 21:44:66
  TRACK 913 AUDIO
    TITLE "TOEIC LR Kinnojyukugo_10_0913"
    INDEX 01 21:46:12
  TRACK 914 AUDIO
    TITLE "TOEIC LR Kinnojyukugo_10_0914"
    INDEX 01 21:46:45
  TRACK 915 AUDIO
    TITLE "TOEIC LR Kinnojyukugo_10_0915"
    INDEX 01 21:48:03
  TRACK 916 AUDIO
    TITLE "TOEIC LR Kinnojyukugo_10_0916"
    INDEX 01 21:48:38
  TRACK 917 AUDIO
    TITLE "TOEIC LR Kinnojyukugo_10_0917"
    INDEX 01 21:53:08
  TRACK 918 AUDIO
    TITLE "TOEIC LR Kinnojyukugo_10_0918"
    INDEX 01 21:53:49
  TRACK 919 AUDIO
    TITLE "TOEIC LR Kinnojyukugo_10_0919"
    INDEX 01 21:57:51
  TRACK 920 AUDIO
    TITLE "TOEIC LR Kinnojyukugo_10_0920"
    INDEX 01 21:58:03
  TRACK 921 AUDIO
    TITLE "TOEIC LR Kinnojyukugo_10_0921"
    INDEX 01 22:02:05
  TRACK 922 AUDIO
    TITLE "TOEIC LR Kinnojyukugo_10_0922"
    INDEX 01 22:03:04
  TRACK 923 AUDIO
    TITLE "TOEIC LR Kinnojyukugo_10_0923"
    INDEX 01 22:04:27
  TRACK 924 AUDIO
    TITLE "TOEIC LR Kinnojyukugo_10_0924"
    INDEX 01 22:04:64
  TRACK 925 AUDIO
    TITLE "TOEIC LR Kinnojyukugo_10_0925"
    INDEX 01 22:06:18
  TRACK 926 AUDIO
    TITLE "TOEIC LR Kinnojyukugo_10_0926"
    INDEX 01 22:06:59
  TRACK 927 AUDIO
    TITLE "TOEIC LR Kinnojyukugo_10_0927"
    INDEX 01 22:10:34
  TRACK 928 AUDIO
    TITLE "TOEIC LR Kinnojyukugo_10_0928"
    INDEX 01 22:10:73
  TRACK 929 AUDIO
    TITLE "TOEIC LR Kinnojyukugo_10_0929"
    INDEX 01 22:14:35
  TRACK 930 AUDIO
    TITLE "TOEIC LR Kinnojyukugo_10_0930"
    INDEX 01 22:14:59
  TRACK 931 AUDIO
    TITLE "TOEIC LR Kinnojyukugo_10_0931"
    INDEX 01 22:18:23
  TRACK 932 AUDIO
    TITLE "TOEIC LR Kinnojyukugo_10_0932"
    INDEX 01 22:19:23
  TRACK 933 AUDIO
    TITLE "TOEIC LR Kinnojyukugo_10_0933"
    INDEX 01 22:20:40
  TRACK 934 AUDIO
    TITLE "TOEIC LR Kinnojyukugo_10_0934"
    INDEX 01 22:21:06
  TRACK 935 AUDIO
    TITLE "TOEIC LR Kinnojyukugo_10_0935"
    INDEX 01 22:22:35
  TRACK 936 AUDIO
    TITLE "TOEIC LR Kinnojyukugo_10_0936"
    INDEX 01 22:23:01
  TRACK 937 AUDIO
    TITLE "TOEIC LR Kinnojyukugo_10_0937"
    INDEX 01 22:26:13
  TRACK 938 AUDIO
    TITLE "TOEIC LR Kinnojyukugo_10_0938"
    INDEX 01 22:26:52
  TRACK 939 AUDIO
    TITLE "TOEIC LR Kinnojyukugo_10_0939"
    INDEX 01 22:28:61
  TRACK 940 AUDIO
    TITLE "TOEIC LR Kinnojyukugo_10_0940"
    INDEX 01 22:29:09
  TRACK 941 AUDIO
    TITLE "TOEIC LR Kinnojyukugo_10_0941"
    INDEX 01 22:31:20
  TRACK 942 AUDIO
    TITLE "TOEIC LR Kinnojyukugo_10_0942"
    INDEX 01 22:32:18
  TRACK 943 AUDIO
    TITLE "TOEIC LR Kinnojyukugo_10_0943"
    INDEX 01 22:33:41
  TRACK 944 AUDIO
    TITLE "TOEIC LR Kinnojyukugo_10_0944"
    INDEX 01 22:34:03
  TRACK 945 AUDIO
    TITLE "TOEIC LR Kinnojyukugo_10_0945"
    INDEX 01 22:35:24
  TRACK 946 AUDIO
    TITLE "TOEIC LR Kinnojyukugo_10_0946"
    INDEX 01 22:35:61
  TRACK 947 AUDIO
    TITLE "TOEIC LR Kinnojyukugo_10_0947"
    INDEX 01 22:38:28
  TRACK 948 AUDIO
    TITLE "TOEIC LR Kinnojyukugo_10_0948"
    INDEX 01 22:38:67
  TRACK 949 AUDIO
    TITLE "TOEIC LR Kinnojyukugo_10_0949"
    INDEX 01 22:41:48
  TRACK 950 AUDIO
    TITLE "TOEIC LR Kinnojyukugo_10_0950"
    INDEX 01 22:41:71
  TRACK 951 AUDIO
    TITLE "TOEIC LR Kinnojyukugo_10_0951"
    INDEX 01 22:44:52
  TRACK 952 AUDIO
    TITLE "TOEIC LR Kinnojyukugo_10_0952"
    INDEX 01 22:45:52
  TRACK 953 AUDIO
    TITLE "TOEIC LR Kinnojyukugo_10_0953"
    INDEX 01 22:46:69
  TRACK 954 AUDIO
    TITLE "TOEIC LR Kinnojyukugo_10_0954"
    INDEX 01 22:47:31
  TRACK 955 AUDIO
    TITLE "TOEIC LR Kinnojyukugo_10_0955"
    INDEX 01 22:48:42
  TRACK 956 AUDIO
    TITLE "TOEIC LR Kinnojyukugo_10_0956"
    INDEX 01 22:49:06
  TRACK 957 AUDIO
    TITLE "TOEIC LR Kinnojyukugo_10_0957"
    INDEX 01 22:52:50
  TRACK 958 AUDIO
    TITLE "TOEIC LR Kinnojyukugo_10_0958"
    INDEX 01 22:53:12
  TRACK 959 AUDIO
    TITLE "TOEIC LR Kinnojyukugo_10_0959"
    INDEX 01 22:57:18
  TRACK 960 AUDIO
    TITLE "TOEIC LR Kinnojyukugo_10_0960"
    INDEX 01 22:57:43
  TRACK 961 AUDIO
    TITLE "TOEIC LR Kinnojyukugo_10_0961"
    INDEX 01 23:01:47
  TRACK 962 AUDIO
    TITLE "TOEIC LR Kinnojyukugo_10_0962"
    INDEX 01 23:02:48
  TRACK 963 AUDIO
    TITLE "TOEIC LR Kinnojyukugo_10_0963"
    INDEX 01 23:04:02
  TRACK 964 AUDIO
    TITLE "TOEIC LR Kinnojyukugo_10_0964"
    INDEX 01 23:04:39
  TRACK 965 AUDIO
    TITLE "TOEIC LR Kinnojyukugo_10_0965"
    INDEX 01 23:06:09
  TRACK 966 AUDIO
    TITLE "TOEIC LR Kinnojyukugo_10_0966"
    INDEX 01 23:06:46
  TRACK 967 AUDIO
    TITLE "TOEIC LR Kinnojyukugo_10_0967"
    INDEX 01 23:10:03
  TRACK 968 AUDIO
    TITLE "TOEIC LR Kinnojyukugo_10_0968"
    INDEX 01 23:10:40
  TRACK 969 AUDIO
    TITLE "TOEIC LR Kinnojyukugo_10_0969"
    INDEX 01 23:13:62
  TRACK 970 AUDIO
    TITLE "TOEIC LR Kinnojyukugo_10_0970"
    INDEX 01 23:14:20
  TRACK 971 AUDIO
    TITLE "TOEIC LR Kinnojyukugo_10_0971"
    INDEX 01 23:17:40
  TRACK 972 AUDIO
    TITLE "TOEIC LR Kinnojyukugo_10_0972"
    INDEX 01 23:18:45
  TRACK 973 AUDIO
    TITLE "TOEIC LR Kinnojyukugo_10_0973"
    INDEX 01 23:19:68
  TRACK 974 AUDIO
    TITLE "TOEIC LR Kinnojyukugo_10_0974"
    INDEX 01 23:20:28
  TRACK 975 AUDIO
    TITLE "TOEIC LR Kinnojyukugo_10_0975"
    INDEX 01 23:22:08
  TRACK 976 AUDIO
    TITLE "TOEIC LR Kinnojyukugo_10_0976"
    INDEX 01 23:22:49
  TRACK 977 AUDIO
    TITLE "TOEIC LR Kinnojyukugo_10_0977"
    INDEX 01 23:24:67
  TRACK 978 AUDIO
    TITLE "TOEIC LR Kinnojyukugo_10_0978"
    INDEX 01 23:25:32
  TRACK 979 AUDIO
    TITLE "TOEIC LR Kinnojyukugo_10_0979"
    INDEX 01 23:27:36
  TRACK 980 AUDIO
    TITLE "TOEIC LR Kinnojyukugo_10_0980"
    INDEX 01 23:27:66
  TRACK 981 AUDIO
    TITLE "TOEIC LR Kinnojyukugo_10_0981"
    INDEX 01 23:29:67
  TRACK 982 AUDIO
    TITLE "TOEIC LR Kinnojyukugo_10_0982"
    INDEX 01 23:30:68
  TRACK 983 AUDIO
    TITLE "TOEIC LR Kinnojyukugo_10_0983"
    INDEX 01 23:32:14
  TRACK 984 AUDIO
    TITLE "TOEIC LR Kinnojyukugo_10_0984"
    INDEX 01 23:32:49
  TRACK 985 AUDIO
    TITLE "TOEIC LR Kinnojyukugo_10_0985"
    INDEX 01 23:34:03
  TRACK 986 AUDIO
    TITLE "TOEIC LR Kinnojyukugo_10_0986"
    INDEX 01 23:34:38
  TRACK 987 AUDIO
    TITLE "TOEIC LR Kinnojyukugo_10_0987"
    INDEX 01 23:37:01
  TRACK 988 AUDIO
    TITLE "TOEIC LR Kinnojyukugo_10_0988"
    INDEX 01 23:37:41
  TRACK 989 AUDIO
    TITLE "TOEIC LR Kinnojyukugo_10_0989"
    INDEX 01 23:40:31
  TRACK 990 AUDIO
    TITLE "TOEIC LR Kinnojyukugo_10_0990"
    INDEX 01 23:40:55
  TRACK 991 AUDIO
    TITLE "TOEIC LR Kinnojyukugo_10_0991"
    INDEX 01 23:43:45
  TRACK 992 AUDIO
    TITLE "TOEIC LR Kinnojyukugo_10_0992"
    INDEX 01 23:44:45
  TRACK 993 AUDIO
    TITLE "TOEIC LR Kinnojyukugo_10_0993"
    INDEX 01 23:46:04
  TRACK 994 AUDIO
    TITLE "TOEIC LR Kinnojyukugo_10_0994"
    INDEX 01 23:46:40
  TRACK 995 AUDIO
    TITLE "TOEIC LR Kinnojyukugo_10_0995"
    INDEX 01 23:48:33
  TRACK 996 AUDIO
    TITLE "TOEIC LR Kinnojyukugo_10_0996"
    INDEX 01 23:48:70
  TRACK 997 AUDIO
    TITLE "TOEIC LR Kinnojyukugo_10_0997"
    INDEX 01 23:50:53
  TRACK 998 AUDIO
    TITLE "TOEIC LR Kinnojyukugo_10_0998"
    INDEX 01 23:51:17
  TRACK 999 AUDIO
    TITLE "TOEIC LR Kinnojyukugo_10_0999"
    INDEX 01 23:53:36
  TRACK 1000 AUDIO
    TITLE "TOEIC LR Kinnojyukugo_10_1000"
    INDEX 01 23:53:63
  TRACK 1001 AUDIO
    TITLE "TOEIC LR Kinnojyukugo_10_1001"
    INDEX 01 23:56:03
